<svg width="24" height="24" viewBox="0 0 24 24" fill="none" xmlns="http://www.w3.org/2000/svg">
<path fill-rule="evenodd" clip-rule="evenodd" d="M6.56082 2H17.4397C18.0361 1.99998 18.543 1.99997 18.9591 2.03398C19.396 2.0697 19.8198 2.14787 20.2248 2.35423C20.8353 2.66527 21.3339 3.16168 21.646 3.77428C21.8523 4.17918 21.9304 4.6031 21.9661 5.03964C22 5.45542 22 5.96187 22 6.55712V17.4429C22 18.0381 22 18.5443 21.9661 18.9599C21.9304 19.3964 21.8523 19.82 21.646 20.2248C21.3344 20.8363 20.8363 21.3344 20.2248 21.646C19.82 21.8523 19.3964 21.9304 18.96 21.9661C18.5444 22 18.0381 22 17.4429 22H6.55714C5.96188 22 5.45544 22 5.03965 21.9661C4.6031 21.9304 4.17919 21.8523 3.77428 21.646C3.16168 21.3339 2.66527 20.8353 2.35423 20.2248C2.14787 19.8198 2.0697 19.396 2.03398 18.9591C1.99997 18.543 1.99998 18.0361 2 17.4397V6.56082C1.99998 5.96435 1.99997 5.45711 2.03397 5.04078C2.06967 4.60372 2.14778 4.17946 2.35423 3.77428C2.66582 3.16276 3.16276 2.66582 3.77428 2.35423C4.17946 2.14778 4.60371 2.06967 5.04078 2.03397C5.45711 1.99997 5.96435 1.99998 6.56082 2ZM5.2036 4.02734C4.89005 4.05295 4.75839 4.09746 4.68226 4.13624C4.44706 4.25609 4.25608 4.44706 4.13624 4.68226C4.09746 4.75839 4.05295 4.89005 4.02734 5.2036C4.00078 5.52876 4 5.95367 4 6.60022V17.4002C4 18.0468 4.00078 18.4713 4.02733 18.7961C4.05292 19.1091 4.09737 19.2405 4.13624 19.3168C4.25664 19.5531 4.44814 19.7447 4.68226 19.864C4.75819 19.9027 4.88958 19.9471 5.20254 19.9727C5.52713 19.9992 5.95122 20 6.59654 20H7.625V4H6.60022C5.95367 4 5.52876 4.00078 5.2036 4.02734ZM9.625 4V20H17.4035C18.0488 20 18.4726 19.9992 18.797 19.9727C19.1095 19.9471 19.2408 19.9027 19.3168 19.864C19.552 19.7442 19.7442 19.552 19.864 19.3168C19.9027 19.2408 19.9471 19.1095 19.9727 18.797C19.9992 18.4726 20 18.0488 20 17.4035V6.59652C20 5.95121 19.9992 5.52712 19.9727 5.20254C19.9471 4.88958 19.9027 4.75819 19.864 4.68226C19.7447 4.44814 19.5531 4.25664 19.3168 4.13624C19.2405 4.09737 19.1091 4.05292 18.7961 4.02733C18.4713 4.00078 18.0468 4 17.4002 4H9.625Z" fill="#1D1E20"/>
</svg>
