<svg width="24" height="24" viewBox="0 0 24 24" fill="none" xmlns="http://www.w3.org/2000/svg">
<path fill-rule="evenodd" clip-rule="evenodd" d="M18.7907 4.02892C18.4692 4.00089 18.0479 4 17.4002 4H6.60022C5.95258 4 5.53084 4.00089 5.20898 4.02893C4.90078 4.05578 4.77641 4.10183 4.7058 4.1402C4.47518 4.26554 4.27616 4.472 4.14757 4.74119C4.10075 4.83921 4.05403 4.99659 4.02774 5.34002C4.00068 5.6933 4 6.1527 4 6.84024V13.5602C4 14.2478 4.00069 14.7068 4.02773 15.0597C4.05401 15.4025 4.10067 15.5597 4.14757 15.6578C4.27669 15.9281 4.47622 16.1353 4.7058 16.2601C4.77621 16.2983 4.90032 16.3443 5.20793 16.3711C5.5292 16.3991 5.95012 16.4 6.59653 16.4H17.4035C18.0499 16.4 18.4706 16.3991 18.7916 16.3711C19.0988 16.3443 19.2228 16.2984 19.2933 16.2601C19.5239 16.1347 19.7241 15.927 19.8527 15.6578C19.8994 15.5599 19.9461 15.403 19.9723 15.0606C19.9993 14.7082 20 14.2499 20 13.5637V6.83629C20 6.15007 19.9993 5.69155 19.9723 5.33888C19.946 4.99608 19.8994 4.839 19.8527 4.74119C19.7246 4.47311 19.525 4.26611 19.2933 4.14021C19.2225 4.10173 19.0983 4.05574 18.7907 4.02892ZM18.9644 2.03648C19.4068 2.07505 19.8378 2.15986 20.2483 2.38297C20.8634 2.71725 21.354 3.24402 21.6573 3.87913C21.8556 4.2942 21.9315 4.72944 21.9665 5.18611C22 5.62429 22 6.1599 22 6.79848V13.6015C22 14.2401 22 14.7755 21.9665 15.2135C21.9315 15.67 21.8556 16.1049 21.6573 16.5199C21.3545 17.1539 20.8645 17.6824 20.2483 18.0173C19.8381 18.2403 19.4072 18.325 18.9653 18.3636C18.547 18.4 18.0384 18.4 17.445 18.4H6.55506C5.9616 18.4 5.45277 18.4 5.03425 18.3636C4.59236 18.325 4.16116 18.2403 3.75075 18.0173C3.13359 17.6819 2.64521 17.1528 2.3429 16.5199C2.14456 16.1047 2.06861 15.6696 2.03358 15.2125C1.99998 14.7741 1.99999 14.2379 2 13.5981V6.80243C1.99999 6.16255 1.99998 5.62609 2.03357 5.18732C2.06859 4.73009 2.14449 4.29449 2.3429 3.87913C2.64574 3.24514 3.13464 2.71782 3.75075 2.38297C4.16144 2.15976 4.59298 2.07502 5.0354 2.03647C5.45445 1.99996 5.96407 1.99998 6.55873 2H17.4418C18.0364 1.99998 18.5457 1.99996 18.9644 2.03648ZM7.625 21C7.625 20.4477 8.07272 20 8.625 20H15.375C15.9273 20 16.375 20.4477 16.375 21C16.375 21.5523 15.9273 22 15.375 22H8.625C8.07272 22 7.625 21.5523 7.625 21Z" fill="#1D1E20"/>
</svg>
