<svg width="24" height="24" viewBox="0 0 24 24" fill="none" xmlns="http://www.w3.org/2000/svg">
<path fill-rule="evenodd" clip-rule="evenodd" d="M15.8585 4.03143C15.7647 4.00734 15.6512 3.99999 15.075 3.99999H6.2002C5.62365 3.99999 5.25126 4.00077 4.9678 4.02392C4.69595 4.04613 4.59517 4.08383 4.54579 4.10899C4.35763 4.20486 4.20487 4.35762 4.109 4.54578C4.08383 4.59517 4.04614 4.69594 4.02393 4.96779C4.00078 5.25125 4 5.62365 4 6.20019V17.8002C4 18.3768 4.00078 18.7488 4.02393 19.0319C4.04611 19.3032 4.08375 19.4038 4.109 19.4534C4.20542 19.6426 4.35871 19.7959 4.54579 19.8912C4.595 19.9163 4.69554 19.9539 4.96686 19.9761C5.21614 19.9965 5.53429 19.9995 6 19.9999L6 17.1617C5.99998 16.6345 5.99997 16.1796 6.03057 15.805C6.06286 15.4096 6.13416 15.0162 6.32698 14.6378C6.6146 14.0733 7.07332 13.6146 7.63781 13.327C8.01625 13.1342 8.40962 13.0629 8.80499 13.0306C9.17965 13 9.6345 13 10.1617 13H13.8388C14.3659 13 14.8205 13 15.1949 13.0306C15.5902 13.0629 15.9831 13.1342 16.3614 13.327C16.9248 13.614 17.3851 14.0722 17.6732 14.6378C17.8659 15.016 17.9372 15.4091 17.9695 15.804C18 16.1781 18 16.6323 18 17.1584V19.9999C18.4657 19.9995 18.7836 19.9965 19.0327 19.9761C19.3036 19.9539 19.4041 19.9163 19.4534 19.8912C19.6422 19.795 19.7957 19.6415 19.8912 19.454C19.9163 19.4048 19.9539 19.3043 19.9761 19.033C19.9992 18.7501 20 18.3785 20 17.8031V9.21954C20 8.72701 19.9944 8.63066 19.9762 8.54912C19.9547 8.45295 19.9196 8.36142 19.8719 8.27671C19.832 8.20585 19.7728 8.13179 19.4496 7.77276L16.6944 4.71137C16.3197 4.29503 16.241 4.21845 16.1633 4.16681C16.0708 4.10533 15.9679 4.05951 15.8585 4.03143ZM17.8031 22H6.15839C5.6323 22 5.17815 22 4.80397 21.9694C4.40906 21.9372 4.016 21.8659 3.63781 21.6732C3.07224 21.3851 2.61405 20.9248 2.32698 20.3614C2.13424 19.9831 2.06289 19.5902 2.03058 19.1949C1.99997 18.8205 1.99998 18.3659 2 17.8388V6.16167C1.99998 5.6345 1.99997 5.17964 2.03057 4.80498C2.06286 4.40961 2.13416 4.01624 2.32698 3.6378C2.6146 3.07331 3.07332 2.6146 3.63781 2.32698C4.01625 2.13415 4.40962 2.06285 4.80499 2.03056C5.17965 1.99996 5.63451 1.99998 6.16168 1.99999L15.075 1.99999C15.1051 1.99999 15.135 1.99997 15.1646 1.99994C15.6008 1.9995 15.9855 1.99912 16.3561 2.0943C16.6806 2.17764 16.9897 2.31467 17.2703 2.50114C17.5859 2.71088 17.8398 2.99361 18.1228 3.30866C18.3658 3.57933 18.8281 4.03143 18.8281 4.03143M18.8281 4.03143L20.9362 6.43479C20.953 6.45346 20.9697 6.47201 20.9863 6.49041C21.2314 6.76226 21.4522 7.00712 21.6145 7.29517C21.7589 7.55161 21.8642 7.82704 21.9281 8.11297C22.0007 8.43781 22.0004 8.76959 22 9.14326C22 9.16849 22 9.19392 22 9.21955V17.8416C22 18.3677 22 18.8218 21.9695 19.1959C21.9372 19.5908 21.8659 19.9838 21.6732 20.362C21.3853 20.9271 20.9252 21.3859 20.3614 21.6732C19.9833 21.8659 19.5905 21.9372 19.1957 21.9694C18.8217 22 18.3677 22 17.8416 22H17.8031M16 20.0002V17.1969C16 16.6215 15.9992 16.2498 15.9761 15.9669C15.9539 15.6955 15.9163 15.595 15.8912 15.5458C15.7959 15.3587 15.6427 15.2054 15.4534 15.109C15.4039 15.0837 15.3032 15.0461 15.0319 15.0239C14.7488 15.0008 14.3768 15 13.8002 15H10.2002C9.62365 15 9.25126 15.0008 8.9678 15.0239C8.69595 15.0461 8.59517 15.0838 8.54579 15.109C8.35763 15.2049 8.20487 15.3576 8.109 15.5458C8.08383 15.5952 8.04614 15.6959 8.02393 15.9678C8.00078 16.2513 8 16.6236 8 17.2002V20L16 20.0002ZM8 6.99999C8 6.44771 8.44772 5.99999 9 5.99999H15C15.5523 5.99999 16 6.44771 16 6.99999C16 7.55228 15.5523 7.99999 15 7.99999H9C8.44772 7.99999 8 7.55228 8 6.99999Z" fill="#1D1E20"/>
</svg>
