<svg width="24" height="24" viewBox="0 0 24 24" fill="none" xmlns="http://www.w3.org/2000/svg">
<path fill-rule="evenodd" clip-rule="evenodd" d="M11.4855 2.14251C11.8022 1.9525 12.1978 1.9525 12.5145 2.14251L21.5145 7.54251C21.8157 7.72323 22 8.04874 22 8.4C22 8.75126 21.8157 9.07677 21.5145 9.25749L12.5145 14.6575C12.1978 14.8475 11.8022 14.8475 11.4855 14.6575L2.48553 9.25749C2.18433 9.07677 2.00003 8.75126 2.00003 8.4C2.00003 8.04874 2.18433 7.72323 2.48553 7.54251L11.4855 2.14251ZM4.94368 8.4L12 12.6338L19.0564 8.4L12 4.16619L4.94368 8.4ZM2.14254 11.4855C2.42668 11.0119 3.04094 10.8584 3.51452 11.1425L12 16.2338L20.4855 11.1425C20.9591 10.8584 21.5734 11.0119 21.8575 11.4855C22.1417 11.9591 21.9881 12.5733 21.5145 12.8575L12.5145 18.2575C12.1978 18.4475 11.8022 18.4475 11.4855 18.2575L2.48553 12.8575C2.01195 12.5733 1.85839 11.9591 2.14254 11.4855ZM2.14254 15.0855C2.42668 14.6119 3.04094 14.4584 3.51452 14.7425L12 19.8338L20.4855 14.7425C20.9591 14.4584 21.5734 14.6119 21.8575 15.0855C22.1417 15.5591 21.9881 16.1733 21.5145 16.4575L12.5145 21.8575C12.1978 22.0475 11.8022 22.0475 11.4855 21.8575L2.48553 16.4575C2.01195 16.1733 1.85839 15.5591 2.14254 15.0855Z" fill="#1D1E20"/>
</svg>
