<svg width="24" height="24" viewBox="0 0 24 24" fill="none" xmlns="http://www.w3.org/2000/svg">
<path fill-rule="evenodd" clip-rule="evenodd" d="M16.0816 2.11132C16.5385 1.96289 17.0306 1.96289 17.4874 2.11132C17.8165 2.21827 18.0686 2.39952 18.267 2.56796C18.4477 2.72131 18.6447 2.91841 18.8468 3.12048L20.8766 5.15034C21.0796 5.35328 21.2773 5.55093 21.4311 5.73202C21.5998 5.93085 21.7814 6.18324 21.8885 6.51277C22.0369 6.96966 22.0368 7.46175 21.8884 7.9185C21.7814 8.24784 21.6001 8.50006 21.4314 8.69879C21.2778 8.87972 21.0803 9.07716 20.8776 9.27979L8.49049 21.6669C8.27722 21.8802 7.98795 22 7.68633 22L3.13727 22C2.83565 22 2.54638 21.8802 2.3331 21.6669C2.11982 21.4536 2 21.1644 2 20.8627V16.3137C2 16.0121 2.11982 15.7228 2.3331 15.5095L14.7212 3.12142C14.9235 2.91904 15.1208 2.72173 15.3016 2.56824C15.5002 2.39969 15.7523 2.21832 16.0816 2.11132ZM12.2354 8.82389L4.27453 16.7847V19.7255L7.21525 19.7254L15.1761 11.7646L12.2354 8.82389ZM16.7844 10.1563L19.2531 7.68756C19.4852 7.45542 19.6126 7.3267 19.6974 7.22682C19.7007 7.22289 19.7038 7.21915 19.7068 7.21559C19.7038 7.21195 19.7005 7.20811 19.6971 7.20407C19.611 7.10262 19.4811 6.97148 19.2426 6.73303L17.264 4.75442C17.0265 4.51693 16.8961 4.38771 16.7951 4.30203C16.7914 4.29887 16.7879 4.29589 16.7845 4.29308C16.781 4.29596 16.7774 4.29902 16.7736 4.30226C16.6724 4.38811 16.5417 4.51757 16.3039 4.75537L13.8437 7.21555L16.7844 10.1563Z" fill="#1D1E20"/>
</svg>
