<svg width="24" height="24" viewBox="0 0 24 24" fill="none" xmlns="http://www.w3.org/2000/svg">
<path fill-rule="evenodd" clip-rule="evenodd" d="M10.1617 2H17.8388C18.3659 1.99998 18.8206 1.99997 19.1951 2.03057C19.5904 2.06288 19.9835 2.13421 20.3619 2.32698C20.9258 2.61431 21.3853 3.07276 21.6732 3.63781C21.866 4.01619 21.9373 4.40942 21.9696 4.80476C22.0003 5.17933 22.0002 5.63408 22.0002 6.16121L22.0002 13.8384C22.0002 14.3655 22.0003 14.8203 21.9697 15.1948C21.9373 15.5902 21.866 15.9834 21.6732 16.3618C21.3857 16.9262 20.9265 17.3856 20.3619 17.6732C19.9838 17.8659 19.591 17.9372 19.1962 17.9695C18.8222 18 18.3682 18 17.8421 18H10.1584C9.6323 18 9.17815 18 8.80397 17.9695C8.40906 17.9372 8.016 17.8659 7.63781 17.6732C7.07276 17.3853 6.61432 16.9258 6.32699 16.3619C6.13421 15.9835 6.06288 15.5904 6.03058 15.1951C5.99997 14.8206 5.99999 14.3659 6 13.8388V6.16167C5.99999 5.6345 5.99997 5.17965 6.03057 4.80499C6.06287 4.40962 6.13416 4.01625 6.32698 3.63781C6.6146 3.07332 7.07333 2.6146 7.63781 2.32698C8.01625 2.13416 8.40962 2.06286 8.80499 2.03057C9.17965 1.99997 9.63451 1.99998 10.1617 2ZM8.9678 4.02393C8.69595 4.04614 8.59518 4.08383 8.54579 4.109C8.35763 4.20487 8.20487 4.35763 8.109 4.54579C8.08384 4.59517 8.04614 4.69595 8.02393 4.9678C8.00078 5.25126 8.00001 5.62365 8.00001 6.2002V13.8002C8.00001 14.3768 8.00078 14.7489 8.02393 15.0322C8.04612 15.3037 8.08379 15.4044 8.109 15.4539C8.20516 15.6426 8.35819 15.7956 8.54579 15.8912C8.59501 15.9163 8.69555 15.9539 8.96686 15.9761C9.2498 15.9992 9.62146 16 10.1969 16H17.8036C18.379 16 18.7505 15.9992 19.0332 15.9761C19.3041 15.954 19.4046 15.9164 19.4539 15.8912C19.642 15.7954 19.7953 15.6421 19.8912 15.4538C19.9164 15.4044 19.9541 15.3036 19.9763 15.032C19.9994 14.7486 20.0002 14.3764 20.0002 13.7998L20.0002 6.19978C20.0002 5.62324 19.9994 5.25096 19.9763 4.96762C19.9541 4.69595 19.9164 4.59523 19.8912 4.54579C19.7956 4.35819 19.6426 4.20516 19.4539 4.109C19.4044 4.08378 19.3037 4.04612 19.0322 4.02393C18.749 4.00078 18.3768 4 17.8002 4H10.2002C9.62366 4 9.25126 4.00078 8.9678 4.02393ZM16.2929 7.2929C16.6834 6.90237 17.3166 6.90237 17.7071 7.2929C18.0976 7.68342 18.0976 8.31658 17.7071 8.70711L13.7071 12.7071C13.3166 13.0976 12.6834 13.0976 12.2929 12.7071L10.2929 10.7071C9.90237 10.3166 9.90237 9.68342 10.2929 9.2929C10.6834 8.90237 11.3166 8.90237 11.7071 9.2929L13 10.5858L16.2929 7.2929ZM3.00001 8C3.55229 8 4.00001 8.44772 4.00001 9V19.4C4.00001 19.6965 4.00078 19.8587 4.01031 19.9752C4.01069 19.98 4.01108 19.9844 4.01147 19.9886C4.01547 19.989 4.0197 19.9893 4.02416 19.9897C4.14054 19.9992 4.30249 20 4.59846 20H15.0001C15.5524 20 16.0001 20.4477 16.0001 21C16.0001 21.5523 15.5524 22 15.0001 22L4.56659 22C4.31472 22 4.06923 22.0001 3.86126 21.9831C3.63291 21.9644 3.36325 21.9204 3.09191 21.7821M3.09191 21.7821C2.71471 21.5899 2.40929 21.2832 2.21799 20.9078C2.07972 20.6364 2.03564 20.3668 2.01695 20.1382C1.99994 19.93 1.99997 19.6843 2 19.4319L2.00001 9C2.00001 8.44772 2.44772 8 3.00001 8" fill="#1D1E20"/>
</svg>
