<svg width="24" height="24" viewBox="0 0 24 24" fill="none" xmlns="http://www.w3.org/2000/svg">
<path fill-rule="evenodd" clip-rule="evenodd" d="M6.56082 2H17.4397C18.0361 1.99998 18.5432 1.99997 18.9593 2.03398C19.3963 2.06969 19.8203 2.14783 20.2254 2.35423C20.8363 2.66553 21.3341 3.16219 21.646 3.77428C21.8523 4.17918 21.9304 4.6031 21.9661 5.03964C22 5.45542 22 5.96187 22 6.55712V17.4434C22 18.0387 22 18.5449 21.9661 18.9605C21.9304 19.397 21.8523 19.8206 21.646 20.2254C21.3344 20.8369 20.8369 21.3344 20.2254 21.646C19.8206 21.8523 19.397 21.9304 18.9605 21.9661C18.5449 22 18.0387 22 17.4434 22H6.55712C5.96187 22 5.45542 22 5.03964 21.9661C4.6031 21.9304 4.17918 21.8523 3.77428 21.646C3.16219 21.3341 2.66553 20.8363 2.35423 20.2254C2.14783 19.8203 2.06969 19.3963 2.03398 18.9593C1.99997 18.5432 1.99998 18.0361 2 17.4397V6.56082C1.99998 5.96434 1.99997 5.45711 2.03397 5.04078C2.06967 4.60372 2.14778 4.17946 2.35423 3.77428C2.66582 3.16276 3.16276 2.66582 3.77428 2.35423C4.17946 2.14778 4.60371 2.06967 5.04078 2.03397C5.45711 1.99997 5.96434 1.99998 6.56082 2ZM5.2036 4.02734C4.89005 4.05295 4.75839 4.09746 4.68226 4.13624C4.44706 4.25608 4.25608 4.44706 4.13624 4.68226C4.09746 4.75839 4.05295 4.89005 4.02734 5.2036C4.00078 5.52876 4 5.95367 4 6.60022V7.625H11V4H6.60022C5.95367 4 5.52876 4.00078 5.2036 4.02734ZM13 4V7.625H20V6.59653C20 5.95121 19.9992 5.52712 19.9727 5.20254C19.9471 4.88958 19.9027 4.75819 19.864 4.68226C19.7444 4.44763 19.5531 4.25637 19.3174 4.13624C19.2412 4.0974 19.1096 4.05293 18.7964 4.02733C18.4715 4.00078 18.0468 4 17.4002 4H13ZM20 9.625H13V14.375H20V9.625ZM20 16.375H13V20H17.404C18.0494 20 18.4732 19.9992 18.7975 19.9727C19.1101 19.9471 19.2413 19.9027 19.3174 19.864C19.5526 19.7442 19.7442 19.5526 19.864 19.3174C19.9027 19.2413 19.9471 19.1101 19.9727 18.7975C19.9992 18.4732 20 18.0494 20 17.404V16.375ZM11 20V16.375H4V17.4002C4 18.0468 4.00078 18.4715 4.02733 18.7964C4.05293 19.1096 4.0974 19.2412 4.13624 19.3174C4.25637 19.5531 4.44763 19.7444 4.68226 19.864C4.75819 19.9027 4.88958 19.9471 5.20254 19.9727C5.52712 19.9992 5.95121 20 6.59653 20H11ZM4 14.375H11V9.625H4V14.375Z" fill="#1D1E20"/>
</svg>
