<svg width="24" height="24" viewBox="0 0 24 24" fill="none" xmlns="http://www.w3.org/2000/svg">
<path fill-rule="evenodd" clip-rule="evenodd" d="M10.8453 2H13.1547C13.6536 1.99999 14.0724 1.99999 14.4166 2.02086C14.7747 2.04258 15.119 2.08954 15.4566 2.21383C16.2323 2.49945 16.8851 3.06149 17.235 3.81248C17.392 4.14938 17.4496 4.49148 17.4756 4.82915C17.4798 4.88418 17.4833 4.94115 17.4862 5H21C21.5523 5 22 5.44772 22 6C22 6.55229 21.5523 7 21 7H19.75V17.8453C19.75 18.3682 19.75 18.8267 19.7152 19.2059C19.6779 19.6109 19.5949 20.0171 19.3726 20.4049C19.0447 20.977 18.5334 21.4214 17.9334 21.6932C17.5395 21.8716 17.1289 21.939 16.7009 21.9701C16.2899 22 15.7876 22 15.1893 22H8.81071C8.21235 22 7.70986 22 7.29864 21.9701C6.87063 21.9391 6.45973 21.8716 6.0657 21.6932C5.46455 21.4209 4.955 20.976 4.62766 20.4049C4.40523 20.0169 4.32214 19.6105 4.28485 19.205C4.24995 18.8253 4.24997 18.3662 4.25 17.8422L4.25 7H3C2.44772 7 2 6.55229 2 6C2 5.44772 2.44772 5 3 5H6.51375C6.51663 4.94118 6.52012 4.88425 6.52434 4.82926C6.55027 4.49161 6.60783 4.14945 6.76485 3.81248C7.11475 3.06162 7.76726 2.4995 8.54316 2.21383C8.88075 2.08953 9.22514 2.04258 9.58323 2.02086C9.92757 1.99999 10.3464 1.99999 10.8453 2ZM8.51716 5H15.4828C15.4824 4.99411 15.4819 4.98826 15.4815 4.98246C15.4646 4.76242 15.4365 4.68789 15.4222 4.65725C15.3154 4.42812 15.0924 4.21101 14.7655 4.09066C14.6896 4.0627 14.5651 4.03354 14.2956 4.0172C14.0191 4.00043 13.6614 4 13.125 4H10.875C10.3386 4 9.98083 4.00043 9.70428 4.0172C9.43467 4.03355 9.31008 4.06271 9.23419 4.09066C8.90745 4.21095 8.68452 4.42799 8.57769 4.65725C8.56344 4.68782 8.53537 4.76228 8.51847 4.98235C8.51803 4.98819 8.51759 4.99407 8.51716 5ZM6.25 7V17.8C6.25 18.3786 6.25098 18.7448 6.27645 19.0218C6.30048 19.2832 6.34001 19.3705 6.36281 19.4103C6.4669 19.5919 6.64527 19.7601 6.89084 19.8713C6.97764 19.9106 7.12204 19.9521 7.44354 19.9754C7.77364 19.9994 8.20302 20 8.84652 20H15.1535C15.797 20 16.2261 19.9994 16.556 19.9754C16.8771 19.9521 17.0213 19.9107 17.1083 19.8713C17.355 19.7596 17.5339 19.5909 17.6374 19.4103C17.6601 19.3707 17.6996 19.2836 17.7236 19.0227C17.749 18.7461 17.75 18.3806 17.75 17.8031V7H6.25Z" fill="#1D1E20"/>
</svg>
