<svg width="24" height="24" viewBox="0 0 24 24" fill="none" xmlns="http://www.w3.org/2000/svg">
<path fill-rule="evenodd" clip-rule="evenodd" d="M21.6832 6.26973C22.0865 6.64702 22.1076 7.27983 21.7303 7.68315L12.4198 17.636C12.2307 17.8381 11.9663 17.9528 11.6895 17.9528C11.4127 17.9528 11.1483 17.8381 10.9592 17.6359L6.61463 12.9912C6.23736 12.5879 6.25848 11.9551 6.66182 11.5778C7.06516 11.2005 7.69797 11.2217 8.07525 11.625L11.6895 15.489L20.2697 6.31685C20.647 5.91353 21.2798 5.89243 21.6832 6.26973ZM17.3373 6.31689C17.7406 6.69416 17.7618 7.32697 17.3845 7.73031L12.7296 12.7068C12.3523 13.1101 11.7195 13.1312 11.3162 12.754C10.9129 12.3767 10.8917 11.7439 11.269 11.3405L15.9239 6.36408C16.3011 5.96074 16.934 5.93961 17.3373 6.31689ZM2.31689 11.625C2.72023 11.2477 3.35304 11.2689 3.73031 11.6722L8.07486 16.3169C8.45213 16.7202 8.431 17.353 8.02766 17.7303C7.62432 18.1076 6.99151 18.0865 6.61424 17.6831L2.26969 13.0384C1.89242 12.6351 1.91355 12.0023 2.31689 11.625Z" fill="#1D1E20"/>
</svg>
