<svg width="24" height="24" viewBox="0 0 24 24" fill="none" xmlns="http://www.w3.org/2000/svg">
<path fill-rule="evenodd" clip-rule="evenodd" d="M3 3C3 2.44772 3.44772 2 4 2H4.00195C4.55424 2 5.00195 2.44772 5.00195 3V3.002C5.00195 3.27138 4.89328 3.52936 4.70053 3.71754C4.50778 3.90572 4.24726 4.00818 3.97796 4.00171L3.97601 4.00167C3.43323 3.98864 3 3.54489 3 3.00195V3ZM7 3C7 2.44772 7.44772 2 8 2H8.00195C8.55424 2 9.00195 2.44772 9.00195 3V3.002C9.00195 3.27138 8.89327 3.52936 8.70053 3.71754C8.50778 3.90572 8.24726 4.00818 7.97796 4.00171L7.97601 4.00167C7.43323 3.98864 7 3.54489 7 3.00195V3ZM11.2028 2.39633C11.392 2.14638 11.6876 1.99966 12.0011 2C17.521 2.00605 21.9933 6.48728 22 11.9978C22 11.9982 22 11.9985 22 11.9989L21 12L21.9999 11.9968C21.9999 11.9971 22 11.9975 22 11.9978C22.0173 17.52 17.5178 21.9817 12.0032 21.9997C6.47154 22.0176 2.01793 17.5096 2.00001 12.0038C1.99902 11.7016 2.13475 11.4152 2.36925 11.2245C2.60376 11.0339 2.91188 10.9596 3.2075 11.0223C4.05066 11.2011 4.89367 11.0146 5.5172 10.5051L5.52036 10.5026C6.19063 9.95947 6.57666 9.14216 6.57023 8.28154L6.5702 8.27641C6.56973 8.07256 6.55146 7.86938 6.51558 7.66853C6.45179 7.31144 6.58638 6.9478 6.86729 6.71829C7.1482 6.48877 7.53137 6.42938 7.86858 6.56308C8.57485 6.84311 9.37505 6.75181 10.0006 6.32015C10 6.32052 9.99948 6.32089 9.99895 6.32127L10.5708 7.14162L10.0021 6.31906C10.0016 6.31942 10.0011 6.31978 10.0006 6.32015C10.7285 5.81192 11.1586 4.97988 11.1521 4.09457L11.1521 4.0895C11.1515 3.81316 11.113 3.53819 11.0378 3.27222C10.9524 2.97054 11.0135 2.64629 11.2028 2.39633ZM13.1521 4.08386C13.1621 5.62876 12.4103 7.07835 11.1427 7.96198L11.1395 7.96419C10.3709 8.49558 9.46135 8.75322 8.55222 8.72039C8.43946 10.0197 7.80409 11.2256 6.78093 12.0553C5.99387 12.6977 5.04419 13.0339 4.07599 13.0822C4.61503 16.9903 7.95444 20.0128 11.9967 19.9997C16.4229 19.9853 20.0142 16.4055 20 12.0032L20 12.0011C19.9955 7.98272 17.0219 4.64744 13.1521 4.08386ZM8.57019 8.2691C8.57019 8.26998 8.5702 8.27085 8.5702 8.27173L7.5702 8.27407L8.57017 8.2666C8.57018 8.26743 8.57018 8.26827 8.57019 8.2691ZM2 7C2 6.44772 2.44772 6 3 6H3.00195C3.55424 6 4.00195 6.44772 4.00195 7V7.002C4.00195 7.27136 3.89329 7.52934 3.70055 7.71751C3.50782 7.90569 3.24732 8.00816 2.97803 8.00171L2.97608 8.00167C2.43327 7.98868 2 7.54492 2 7.00195V7ZM15 10C15 9.44772 15.4477 9 16 9H16.002C16.5542 9 17.002 9.44772 17.002 10V10.002C17.002 10.2714 16.8933 10.5293 16.7006 10.7175C16.5078 10.9057 16.2473 11.0082 15.978 11.0017L15.9761 11.0017C15.4333 10.9887 15 10.5449 15 10.002V10ZM10 12C10 11.4477 10.4477 11 11 11H11.002C11.5542 11 12.002 11.4477 12.002 12V12.002C12.002 12.2714 11.8933 12.5293 11.7006 12.7175C11.5078 12.9057 11.2473 13.0082 10.978 13.0017L10.9761 13.0017C10.4333 12.9887 10 12.5449 10 12.002V12ZM14 15C14 14.4477 14.4477 14 15 14H15.002C15.5542 14 16.002 14.4477 16.002 15V15.002C16.002 15.2714 15.8933 15.5293 15.7006 15.7175C15.5078 15.9057 15.2473 16.0082 14.978 16.0017L14.9761 16.0017C14.4333 15.9887 14 15.5449 14 15.002V15ZM9 17C9 16.4477 9.44772 16 10 16H10.002C10.5542 16 11.002 16.4477 11.002 17V17.002C11.002 17.2714 10.8933 17.5293 10.7006 17.7175C10.5078 17.9057 10.2473 18.0082 9.97803 18.0017L9.97608 18.0017C9.43327 17.9887 9 17.5449 9 17.002V17Z" fill="#1D1E20"/>
</svg>
