<svg width="24" height="24" viewBox="0 0 24 24" fill="none" xmlns="http://www.w3.org/2000/svg">
<path fill-rule="evenodd" clip-rule="evenodd" d="M12.1617 2H17.8388C18.3659 1.99998 18.8206 1.99997 19.1951 2.03057C19.5904 2.06288 19.9835 2.13421 20.3619 2.32698C20.9258 2.61431 21.3853 3.07276 21.6732 3.63781C21.866 4.01619 21.9373 4.40941 21.9696 4.80475C22.0002 5.17932 22.0002 5.63407 22.0002 6.16121V11.8384C22.0002 12.3655 22.0002 12.8203 21.9696 13.1948C21.9373 13.5902 21.866 13.9834 21.6732 14.3618C21.3855 14.9265 20.9259 15.3857 20.3616 15.6732C19.9835 15.8659 19.5906 15.9372 19.1958 15.9695C18.8217 16 18.3677 16 17.8416 16H16V17.8416C16 18.3677 16 18.8217 15.9695 19.1958C15.9372 19.5906 15.8659 19.9835 15.6732 20.3616C15.3858 20.9258 14.9267 21.3855 14.3619 21.6732C13.9838 21.8659 13.591 21.9372 13.1962 21.9695C12.8221 22 12.3681 22 11.8421 22H6.15839C5.6323 22 5.17815 22 4.80397 21.9695C4.40906 21.9372 4.016 21.8659 3.63781 21.6732C3.07276 21.3853 2.61432 20.9258 2.32698 20.3619C2.13421 19.9835 2.06288 19.5904 2.03057 19.1951C1.99997 18.8206 1.99998 18.3659 2 17.8388V12.1617C1.99998 11.6345 1.99997 11.1796 2.03057 10.805C2.06286 10.4096 2.13416 10.0162 2.32698 9.63781C2.6146 9.07332 3.07332 8.6146 3.63781 8.32698C4.01625 8.13416 4.40962 8.06286 4.80499 8.03057C5.17965 7.99997 5.6345 7.99998 6.16167 8L8 8L8 6.16167C7.99998 5.6345 7.99997 5.17965 8.03057 4.80499C8.06286 4.40962 8.13416 4.01625 8.32698 3.63781C8.6146 3.07332 9.07332 2.6146 9.63781 2.32698C10.0162 2.13416 10.4096 2.06286 10.805 2.03057C11.1796 1.99997 11.6345 1.99998 12.1617 2ZM10 8L11.8388 8C12.3659 7.99998 12.8206 7.99997 13.1951 8.03057C13.5904 8.06288 13.9835 8.13421 14.3619 8.32698C14.9258 8.61431 15.3853 9.07276 15.6732 9.63781C15.8659 10.016 15.9372 10.4091 15.9695 10.804C16 11.1782 16 11.6323 16 12.1584L16 14H17.8031C18.3786 14 18.75 13.9992 19.0328 13.9761C19.3038 13.9539 19.4043 13.9163 19.4536 13.8912C19.642 13.7952 19.7955 13.6418 19.8912 13.4538C19.9164 13.4044 19.9541 13.3036 19.9763 13.032C19.9994 12.7486 20.0002 12.3764 20.0002 11.7998V6.19978C20.0002 5.62323 19.9994 5.25095 19.9763 4.96762C19.9541 4.69595 19.9164 4.59523 19.8912 4.54579C19.7956 4.35819 19.6426 4.20516 19.4539 4.109C19.4044 4.08378 19.3037 4.04612 19.0322 4.02393C18.7489 4.00078 18.3768 4 17.8002 4H12.2002C11.6237 4 11.2513 4.00078 10.9678 4.02393C10.6959 4.04614 10.5952 4.08383 10.5458 4.109C10.3576 4.20487 10.2049 4.35763 10.109 4.54579C10.0838 4.59517 10.0461 4.69595 10.0239 4.9678C10.0008 5.25126 10 5.62365 10 6.2002V8ZM4.9678 10.0239C4.69595 10.0461 4.59517 10.0838 4.54579 10.109C4.35763 10.2049 4.20487 10.3576 4.109 10.5458C4.08383 10.5952 4.04614 10.6959 4.02393 10.9678C4.00078 11.2513 4 11.6237 4 12.2002V17.8002C4 18.3768 4.00078 18.7489 4.02393 19.0322C4.04612 19.3037 4.08378 19.4044 4.109 19.4539C4.20515 19.6426 4.35819 19.7956 4.54579 19.8912C4.59501 19.9163 4.69554 19.9539 4.96686 19.9761C5.2498 19.9992 5.62146 20 6.19691 20H11.8036C12.379 20 12.7505 19.9992 13.0332 19.9761C13.3041 19.954 13.4046 19.9164 13.4539 19.8912C13.6417 19.7955 13.7952 19.6421 13.8912 19.4536C13.9163 19.4043 13.9539 19.3038 13.9761 19.0328C13.9992 18.75 14 18.3786 14 17.8031L14 12.1969C14 11.6215 13.9992 11.2498 13.9761 10.9669C13.9539 10.6955 13.9163 10.595 13.8912 10.5458C13.7956 10.3582 13.6426 10.2052 13.4539 10.109C13.4044 10.0838 13.3037 10.0461 13.0322 10.0239C12.7489 10.0008 12.3768 10 11.8002 10H6.2002C5.62365 10 5.25126 10.0008 4.9678 10.0239Z" fill="#1D1E20"/>
</svg>
