<svg width="24" height="24" viewBox="0 0 24 24" fill="none" xmlns="http://www.w3.org/2000/svg">
<path fill-rule="evenodd" clip-rule="evenodd" d="M6 2C6.55228 2 7 2.44772 7 3V14.8C7 15.3766 7.00078 15.7487 7.02393 16.0319C7.04611 16.3034 7.08377 16.4041 7.10899 16.4536C7.20531 16.6426 7.3585 16.7958 7.54579 16.8912C7.595 16.9163 7.69554 16.9539 7.96686 16.9761C8.2498 16.9992 8.62146 17 9.19691 17H21.0002C21.5525 17 22.0002 17.4477 22.0002 18C22.0002 18.5523 21.5525 19 21.0002 19H19V21C19 21.5523 18.5523 22 18 22C17.4477 22 17 21.5523 17 21V19H9.15839C8.6323 19 8.17815 19 7.80396 18.9695C7.40906 18.9372 7.016 18.8659 6.63781 18.6732C6.07245 18.3852 5.61415 17.9252 5.32698 17.3616C5.13421 16.9833 5.06288 16.5902 5.03057 16.1949C4.99997 15.8204 4.99998 15.3657 5 14.8386L5 7H3C2.44772 7 2 6.55228 2 6C2 5.44772 2.44772 5 3 5H5V3C5 2.44772 5.44772 2 6 2ZM16.0319 7.02393C15.7487 7.00078 15.3766 7 14.8 7H10C9.44772 7 9 6.55228 9 6C9 5.44772 9.44772 5 10 5L14.8386 5C15.3657 4.99998 15.8204 4.99997 16.1949 5.03057C16.5902 5.06288 16.9833 5.13421 17.3616 5.32698C17.9252 5.61415 18.3852 6.07245 18.6732 6.63781C18.8659 7.016 18.9372 7.40906 18.9695 7.80396C19 8.17815 19 8.6323 19 9.15839V14.0002C19 14.5525 18.5523 15.0002 18 15.0002C17.4477 15.0002 17 14.5525 17 14.0002V9.19691C17 8.62146 16.9992 8.2498 16.9761 7.96686C16.9539 7.69554 16.9163 7.595 16.8912 7.54579C16.7958 7.3585 16.6426 7.20531 16.4536 7.10899C16.4041 7.08377 16.3034 7.04611 16.0319 7.02393Z" fill="#1D1E20"/>
</svg>
