<svg width="24" height="24" viewBox="0 0 24 24" fill="none" xmlns="http://www.w3.org/2000/svg">
<path fill-rule="evenodd" clip-rule="evenodd" d="M6.158 2C6.17202 2 6.18608 2 6.2002 2L15.8424 2C16.3664 1.99998 16.8256 1.99995 17.2052 2.03486C17.6107 2.07214 18.0171 2.15522 18.4052 2.37766C18.9765 2.70517 19.421 3.21487 19.6932 3.81571C19.8716 4.20973 19.9391 4.62064 19.9701 5.04864C20 5.45987 20 5.96235 20 6.56072V8.62522C20 8.89044 19.8946 9.1448 19.7071 9.33233C19.5196 9.51987 19.2652 9.62523 19 9.62522L12.0001 9.62513L12.0002 21C12.0002 21.2652 11.8948 21.5196 11.7073 21.7071C11.5198 21.8946 11.2654 22 11.0002 22H6.15475C5.63185 22 5.17318 22 4.79386 21.9652C4.3888 21.9279 3.98241 21.8449 3.59449 21.6226C3.02208 21.2945 2.57865 20.7836 2.30706 20.1839C2.12852 19.7897 2.061 19.3788 2.02988 18.9503C1.99998 18.5387 1.99999 18.0356 2 17.4361V6.56443C1.99999 5.96484 1.99998 5.46155 2.02987 5.04978C2.06099 4.62125 2.12848 4.21 2.30706 3.81571C2.57892 3.21547 3.02261 2.70547 3.59449 2.37766C3.98266 2.15516 4.38936 2.07212 4.79489 2.03485C5.17468 1.99995 5.63403 1.99998 6.158 2ZM12.0001 7.62513L18 7.62521V6.59653C18 5.95302 17.9994 5.52364 17.9754 5.19354C17.9521 4.87204 17.9106 4.72765 17.8713 4.64084C17.7599 4.39495 17.5919 4.21674 17.4106 4.11281C17.3708 4.09002 17.2835 4.05049 17.0221 4.02646C16.745 4.00099 16.3788 4 15.8002 4H12L12.0001 7.62513ZM10 4L10.0001 7.6251L4 7.62502V6.60022C4 5.95549 4.00062 5.52529 4.02462 5.1946C4.04801 4.87252 4.08951 4.72785 4.12891 4.64084C4.24055 4.39435 4.40834 4.21643 4.58911 4.11281C4.62876 4.09008 4.7162 4.05051 4.97789 4.02646C5.25516 4.00098 5.62162 4 6.2002 4H10ZM4 9.62502L10.0001 9.6251L10.0001 14.375H4V9.62502ZM4 16.375V17.4002C4 18.045 4.00062 18.4749 4.02462 18.8054C4.04799 19.1272 4.08947 19.2717 4.12891 19.3588C4.24082 19.6059 4.40886 19.7841 4.58911 19.8874C4.62859 19.9101 4.7158 19.9496 4.97696 19.9736C5.25371 19.999 5.61943 20 6.19691 20H10.0002L10.0001 16.375H4ZM18 12.125C18.5523 12.125 19 12.5727 19 13.125V15.5H21C21.5523 15.5 22 15.9477 22 16.5C22 17.0523 21.5523 17.5 21 17.5H19V19.875C19 20.4273 18.5523 20.875 18 20.875C17.4477 20.875 17 20.4273 17 19.875V17.5H15C14.4477 17.5 14 17.0523 14 16.5C14 15.9477 14.4477 15.5 15 15.5H17V13.125C17 12.5727 17.4477 12.125 18 12.125Z" fill="#1D1E20"/>
</svg>
