<svg width="24" height="24" viewBox="0 0 24 24" fill="none" xmlns="http://www.w3.org/2000/svg">
<path fill-rule="evenodd" clip-rule="evenodd" d="M7.60152 2H9.12617C9.60535 1.99998 10.0186 1.99996 10.359 2.03397C10.7183 2.06988 11.0756 2.14916 11.4194 2.36331C11.9316 2.68228 12.3501 3.19138 12.612 3.81979C12.7872 4.24 12.852 4.67673 12.8813 5.11552C12.9091 5.53128 12.9091 6.03589 12.9091 6.62044V7.67578C13.085 7.54243 13.2739 7.42954 13.4853 7.35164C13.9987 7.16252 14.5464 7.16252 15.0598 7.35164C15.4013 7.47745 15.6842 7.69446 15.9482 7.94181C16.1975 8.17538 16.4783 8.48372 16.802 8.83912L18.9154 11.1598C18.9347 11.1809 18.9538 11.2019 18.9728 11.2227C19.2704 11.5489 19.5312 11.8348 19.7247 12.1902C19.8942 12.5014 20.0194 12.8449 20.0955 13.2066C20.1825 13.6203 20.1822 14.0489 20.1819 14.5381C20.1818 14.5689 20.1818 14.6 20.1818 14.6313V19.7778H21.0909C21.593 19.7778 22 20.2752 22 20.8889C22 21.5025 21.593 22 21.0909 22H2.90909C2.40701 22 2 21.5025 2 20.8889C2 20.2752 2.40701 19.7778 2.90909 19.7778H3.81818L3.81818 6.62409C3.81816 6.03834 3.81815 5.53294 3.84597 5.11665C3.87533 4.67735 3.94014 4.24027 4.11544 3.81979C4.37691 3.19258 4.79393 2.68289 5.3071 2.36331C5.65113 2.14906 6.00874 2.06985 6.36817 2.03397C6.70877 1.99996 7.12228 1.99998 7.60152 2ZM5.63636 19.7778H8.36364V14.6313C8.36364 14.5978 8.36361 14.5646 8.36358 14.5316C8.36319 14.0465 8.36284 13.6188 8.44954 13.2066C8.52572 12.8445 8.65111 12.5011 8.82043 12.1902C9.01338 11.8358 9.27455 11.5496 9.5701 11.2257C9.58998 11.2039 9.61002 11.182 9.6302 11.1598L11.0909 9.55587V6.66324C11.0909 6.02385 11.0902 5.61089 11.0692 5.29651C11.049 4.99505 11.0148 4.88334 10.992 4.82865C10.9054 4.62079 10.766 4.45047 10.594 4.34333C10.549 4.31527 10.4575 4.27345 10.2108 4.24881C9.95346 4.22309 9.61524 4.22222 9.09109 4.22222H7.63654C7.11241 4.22222 6.77387 4.22309 6.51618 4.24881C6.26904 4.27348 6.17743 4.31537 6.13253 4.34333C5.96148 4.44985 5.82261 4.61959 5.73545 4.82865C5.71257 4.88353 5.6783 4.9955 5.65812 5.29755C5.63707 5.61251 5.63636 6.02628 5.63636 6.66689V19.7778ZM10.1818 19.7778H18.3636V14.6313C18.3636 13.9922 18.3566 13.8647 18.3346 13.76C18.3092 13.6392 18.2675 13.5249 18.2111 13.4214C18.1621 13.3314 18.0895 13.2402 17.7003 12.8129L15.6094 10.517C15.2553 10.1282 15.0278 9.87951 14.8421 9.70546C14.6652 9.53978 14.5821 9.49663 14.535 9.47931C14.3639 9.41627 14.1812 9.41627 14.0101 9.47931C13.9633 9.49654 13.8804 9.53953 13.7038 9.705C13.5183 9.87887 13.2912 10.1271 12.9376 10.5154L10.8453 12.8129C10.4557 13.2407 10.3828 13.3318 10.334 13.4214C10.2775 13.5252 10.2358 13.6395 10.2105 13.76C10.1885 13.8643 10.1818 13.9904 10.1818 14.6313V19.7778Z" fill="#1D1E20"/>
</svg>
