<svg width="24" height="24" viewBox="0 0 24 24" fill="none" xmlns="http://www.w3.org/2000/svg">
<path fill-rule="evenodd" clip-rule="evenodd" d="M15.9357 5.18053C15.8233 5.1329 15.6746 5.11787 14.9282 5.11787H9.07148C8.32517 5.11787 8.17671 5.1329 8.06431 5.18053C7.93368 5.2359 7.81592 5.32593 7.71976 5.44401C7.63706 5.54556 7.56489 5.69925 7.26192 6.50123L6.18453 9.3531H17.8149L16.737 6.49976C16.4343 5.69848 16.3624 5.54532 16.2799 5.44401C16.1835 5.32557 16.0659 5.23573 15.9357 5.18053ZM18.3 11.4707V15.7061L5.7 15.706V11.4707H18.3ZM3.9 11.4707C3.40294 11.4707 3 10.9967 3 10.4119C3 9.82715 3.40294 9.3531 3.9 9.3531H4.21475C4.21829 9.34375 4.22184 9.33434 4.22542 9.32487L5.61706 5.64119C5.63296 5.59908 5.64869 5.55731 5.66428 5.51588C5.89115 4.91317 6.09046 4.38369 6.42002 3.97901C6.7083 3.62503 7.06207 3.35446 7.45425 3.18825C7.90216 2.99842 8.39422 2.99922 8.95376 3.00012C8.99268 3.00019 9.03191 3.00025 9.07148 3.00025H14.9282C14.9678 3.00025 15.007 3.00019 15.046 3.00012C15.6055 2.99922 16.0979 2.99842 16.5458 3.18825C16.9383 3.35463 17.2917 3.62539 17.5797 3.97901C17.9089 4.38327 18.108 4.9122 18.3342 5.5133C18.3499 5.5551 18.3658 5.59724 18.3818 5.63972L19.7791 9.33825C19.781 9.34322 19.7828 9.34817 19.7847 9.3531H20.1C20.5971 9.3531 21 9.82715 21 10.4119C21 10.9967 20.5971 11.4707 20.1 11.4707V17.8235C20.1 19.5777 18.8912 21 17.4 21C15.9089 21 14.7 19.5779 14.7 17.8237L9.3 17.8236C9.3 19.5779 8.09117 21 6.6 21C5.10883 21 3.9 19.5779 3.9 17.8236V11.4707ZM7.5 17.8236H5.7C5.7 18.4083 6.10294 18.8824 6.6 18.8824C7.09706 18.8824 7.5 18.4083 7.5 17.8236ZM16.5 17.8237C16.5 18.4084 16.903 18.8824 17.4 18.8824C17.8969 18.8824 18.2999 18.4084 18.3 17.8237L16.5 17.8237Z" fill="#1D1E20"/>
</svg>
