<svg width="24" height="24" viewBox="0 0 24 24" fill="none" xmlns="http://www.w3.org/2000/svg">
<path fill-rule="evenodd" clip-rule="evenodd" d="M12.3155 4.22551C12.1098 4.16582 11.8902 4.16582 11.6846 4.22551C11.6278 4.242 11.5282 4.28269 11.3161 4.43832C11.0928 4.60214 10.8192 4.83611 10.3922 5.20275L5.05711 9.78383C4.56817 10.2037 4.47642 10.2941 4.41467 10.3834C4.34254 10.4877 4.28996 10.6014 4.25845 10.7197C4.23079 10.8236 4.22236 10.9495 4.22236 11.5893V17.4205C4.22236 18.0492 4.22322 18.4552 4.24894 18.7643C4.27362 19.0607 4.3155 19.1706 4.34346 19.2244C4.44995 19.4295 4.61965 19.5961 4.82879 19.7006C4.88347 19.728 4.99518 19.769 5.29665 19.7932C5.61102 19.8184 6.02398 19.8193 6.66337 19.8193H17.3369C17.9763 19.8193 18.389 19.8184 18.7031 19.7932C19.0042 19.769 19.1158 19.7281 19.1706 19.7006C19.3809 19.5955 19.5512 19.4284 19.657 19.2244C19.6849 19.1707 19.7267 19.0612 19.7514 18.7654C19.777 18.457 19.7779 18.0518 19.7779 17.4243V11.5893C19.7779 10.9512 19.7691 10.824 19.7413 10.7197C19.7092 10.5993 19.6568 10.4859 19.5859 10.3834C19.5242 10.2942 19.4325 10.2038 18.9434 9.78383L13.61 5.20426C13.1825 4.83714 12.9084 4.60279 12.6848 4.43875C12.4723 4.28288 12.3725 4.24206 12.3155 4.22551ZM11.0544 2.13429C11.6714 1.95524 12.3287 1.95524 12.9457 2.13429C13.3554 2.25321 13.6964 2.45811 14.0154 2.69218C14.3161 2.91275 14.655 3.20379 15.045 3.53875L20.4067 8.14265C20.4305 8.16307 20.4541 8.1833 20.4775 8.20338C20.8526 8.52487 21.1807 8.80615 21.4245 9.1586C21.6379 9.46703 21.7955 9.80832 21.8913 10.1684C22.001 10.5803 22.0006 11.0079 22.0002 11.4958C22.0002 11.5267 22.0001 11.5579 22.0001 11.5893V17.4663C22.0002 18.04 22.0002 18.5351 21.9662 18.9431C21.9303 19.3736 21.8511 19.8021 21.6371 20.2145C21.3168 20.8312 20.8054 21.3307 20.1795 21.6437C19.7594 21.8537 19.323 21.9315 18.8842 21.9667C18.4686 22 17.9642 22 17.3797 22H6.62057C6.03603 22 5.53141 22 5.11565 21.9667C4.67686 21.9315 4.24013 21.8538 3.81992 21.6437C3.19278 21.3301 2.68306 20.83 2.36345 20.2145C2.1492 19.8018 2.06998 19.3729 2.0341 18.9418C2.0001 18.5333 2.00011 18.0373 2.00013 17.4625L2.00013 11.5893C2.00013 11.5558 2.0001 11.5227 2.00007 11.4898C1.99957 11.0057 1.99913 10.5789 2.10842 10.1684C2.20486 9.80624 2.36393 9.46524 2.57605 9.1586C2.81994 8.80602 3.14809 8.52473 3.52346 8.20296C3.54671 8.18302 3.57015 8.16292 3.59377 8.14265L8.9585 3.53613C9.34734 3.20221 9.6854 2.91191 9.98534 2.69183C10.304 2.45798 10.6448 2.25317 11.0544 2.13429ZM7.55569 13.277C7.55569 12.6748 8.05315 12.1866 8.6668 12.1866H15.3335C15.9471 12.1866 16.4446 12.6748 16.4446 13.277C16.4446 13.8792 15.9471 14.3674 15.3335 14.3674H8.6668C8.05315 14.3674 7.55569 13.8792 7.55569 13.277Z" fill="#1D1E20"/>
</svg>
