<svg width="24" height="24" viewBox="0 0 24 24" fill="none" xmlns="http://www.w3.org/2000/svg">
<path fill-rule="evenodd" clip-rule="evenodd" d="M12.0002 4.0257C10.0066 4.0257 8.09735 4.66054 6.69183 5.78689C5.28675 6.91288 4.50001 8.43728 4.50001 10.0247C4.50001 12.1876 5.67202 14.2259 7.21115 15.9598C8.74398 17.6867 10.5679 19.0286 11.6959 19.7771C11.7825 19.8345 11.8463 19.8768 11.9022 19.9124C11.9476 19.9414 11.9785 19.96 12.0002 19.9723C12.0217 19.9601 12.0524 19.9417 12.0979 19.9127C12.1537 19.8771 12.2176 19.8348 12.3043 19.7772C13.4324 19.0288 15.2562 17.6869 16.789 15.9601C18.328 14.2263 19.5 12.188 19.5 10.0251C19.5 8.43763 18.7132 6.91269 17.3082 5.78678C15.9027 4.66044 13.9937 4.0257 12.0002 4.0257ZM4.93384 4.34661C6.81023 2.84292 9.35237 2 12.0002 2C14.6479 2 17.1898 2.8428 19.0662 4.34649C20.9431 5.85061 22 7.89321 22 10.0251C22 12.7764 20.5193 15.227 18.8186 17.143C17.1115 19.066 15.1085 20.5349 13.8882 21.3446C13.8677 21.3581 13.8469 21.3721 13.8255 21.3864C13.5488 21.5713 13.1887 21.8121 12.6776 21.9287C12.2608 22.0238 11.739 22.0238 11.3222 21.9287C10.8118 21.8123 10.4501 21.5703 10.1756 21.3868C10.1539 21.3723 10.1328 21.3581 10.1121 21.3444C8.89178 20.5348 6.88867 19.0658 5.18158 17.1427C3.4808 15.2266 2 12.7759 2 10.0247C2 7.89265 3.05701 5.85065 4.93384 4.34661ZM12.0001 8.07711C11.3097 8.07711 10.75 8.53058 10.75 9.08997C10.75 9.64935 11.3097 10.1028 12.0001 10.1028C12.6904 10.1028 13.2501 9.64935 13.2501 9.08997C13.2501 8.53058 12.6904 8.07711 12.0001 8.07711ZM8.25003 9.08997C8.25003 7.41182 9.92897 6.05141 12.0001 6.05141C14.0711 6.05141 15.7501 7.41182 15.7501 9.08997C15.7501 10.7681 14.0711 12.1285 12.0001 12.1285C9.92897 12.1285 8.25003 10.7681 8.25003 9.08997Z" fill="#1D1E20"/>
</svg>
