<svg width="24" height="24" viewBox="0 0 24 24" fill="none" xmlns="http://www.w3.org/2000/svg">
<path fill-rule="evenodd" clip-rule="evenodd" d="M6.35147 6.29289C6.8201 5.90237 7.5799 5.90237 8.04853 6.29289L12 9.58579L15.9515 6.29289C16.4201 5.90237 17.1799 5.90237 17.6485 6.29289C18.1172 6.68342 18.1172 7.31658 17.6485 7.70711L12.8485 11.7071C12.3799 12.0976 11.6201 12.0976 11.1515 11.7071L6.35147 7.70711C5.88284 7.31658 5.88284 6.68342 6.35147 6.29289ZM6.35147 12.2929C6.8201 11.9024 7.5799 11.9024 8.04853 12.2929L12 15.5858L15.9515 12.2929C16.4201 11.9024 17.1799 11.9024 17.6485 12.2929C18.1172 12.6834 18.1172 13.3166 17.6485 13.7071L12.8485 17.7071C12.3799 18.0976 11.6201 18.0976 11.1515 17.7071L6.35147 13.7071C5.88284 13.3166 5.88284 12.6834 6.35147 12.2929Z" fill="#1D1E20"/>
</svg>
