<svg width="24" height="24" viewBox="0 0 24 24" fill="none" xmlns="http://www.w3.org/2000/svg">
<path fill-rule="evenodd" clip-rule="evenodd" d="M6.56082 2H17.4397C18.0361 1.99998 18.5432 1.99997 18.9593 2.03398C19.3963 2.06969 19.8203 2.14783 20.2254 2.35423C20.8363 2.66553 21.3341 3.16219 21.646 3.77428C21.8524 4.1794 21.9306 4.60349 21.9663 5.04052C22.0003 5.45674 22.0003 5.96386 22.0002 6.5603V17.4391C22.0003 18.0356 22.0003 18.5428 21.9663 18.959C21.9306 19.396 21.8524 19.8201 21.646 20.2253C21.3345 20.8367 20.837 21.3344 20.2254 21.646C19.8206 21.8523 19.397 21.9304 18.9605 21.9661C18.5449 22 18.0387 22 17.4434 22H6.55712C5.96187 22 5.45542 22 5.03964 21.9661C4.6031 21.9304 4.17918 21.8523 3.77428 21.646C3.16219 21.3341 2.66553 20.8363 2.35423 20.2254C2.14783 19.8203 2.06969 19.3963 2.03398 18.9593C1.99997 18.5432 1.99998 18.0361 2 17.4397V6.56082C1.99998 5.96434 1.99997 5.45711 2.03397 5.04078C2.06967 4.60372 2.14778 4.17946 2.35423 3.77428C2.66582 3.16276 3.16276 2.66582 3.77428 2.35423C4.17946 2.14778 4.60372 2.06967 5.04078 2.03397C5.45711 1.99997 5.96434 1.99998 6.56082 2ZM5.2036 4.02734C4.89005 4.05295 4.75839 4.09746 4.68226 4.13624C4.44706 4.25609 4.25608 4.44706 4.13624 4.68226C4.09746 4.75839 4.05295 4.89005 4.02734 5.2036C4.00078 5.52876 4 5.95367 4 6.60022V17.4002C4 18.0468 4.00078 18.4715 4.02733 18.7964C4.05293 19.1096 4.09741 19.2412 4.13624 19.3174C4.25637 19.5531 4.44762 19.7444 4.68226 19.864C4.75819 19.9027 4.88958 19.9471 5.20254 19.9727C5.52712 19.9992 5.95121 20 6.59652 20H17.404C18.0494 20 18.4732 19.9992 18.7975 19.9727C19.1101 19.9471 19.2413 19.9027 19.3174 19.864C19.5525 19.7442 19.7441 19.5526 19.864 19.3173C19.9028 19.2411 19.9473 19.1095 19.9729 18.7961C19.9995 18.4711 20.0002 18.0463 20.0002 17.3998V6.59975C20.0002 5.95319 19.9995 5.52841 19.9729 5.20339C19.9473 4.89004 19.9028 4.75845 19.864 4.68226C19.7444 4.44763 19.5531 4.25637 19.3174 4.13624C19.2412 4.0974 19.1096 4.05293 18.7964 4.02733C18.4715 4.00078 18.0468 4 17.4002 4H6.60022C5.95367 4 5.52876 4.00078 5.2036 4.02734ZM12 6.5C12.5523 6.5 13 6.94772 13 7.5V11H16.5C17.0523 11 17.5 11.4477 17.5 12C17.5 12.5523 17.0523 13 16.5 13H13V16.5C13 17.0523 12.5523 17.5 12 17.5C11.4477 17.5 11 17.0523 11 16.5V13H7.5C6.94772 13 6.5 12.5523 6.5 12C6.5 11.4477 6.94772 11 7.5 11H11V7.5C11 6.94772 11.4477 6.5 12 6.5Z" fill="#1D1E20"/>
</svg>
