<svg width="24" height="24" viewBox="0 0 24 24" fill="none" xmlns="http://www.w3.org/2000/svg">
<path fill-rule="evenodd" clip-rule="evenodd" d="M18.3816 5.25178C16.5164 3.58274 13.4894 3.58274 11.6241 5.25178L3.8945 12.1682C3.45933 12.5576 2.75581 12.5557 2.32316 12.1641C1.89051 11.7724 1.89255 11.1392 2.32772 10.7499L10.0574 3.83346C12.7894 1.38885 17.2164 1.38885 19.9484 3.83346C22.6841 6.28134 22.6837 10.2526 19.9481 12.7004L11.0293 20.6808C9.06342 22.4399 5.87925 22.4396 3.91349 20.6806C1.94423 18.9186 1.94357 16.0593 3.91312 14.297L12.8319 6.3165C14.0315 5.2431 15.9745 5.2431 17.1741 6.3165C18.3777 7.39345 18.3763 9.14111 17.1736 10.2174L9.44393 17.1337C9.00876 17.5231 8.30525 17.5213 7.87259 17.1296C7.43994 16.738 7.44198 16.1048 7.87715 15.7154L15.6068 8.79904C15.9364 8.50406 15.9362 8.02907 15.6073 7.73481C15.2745 7.43699 14.7315 7.43699 14.3987 7.73481L5.4799 15.7153C4.38455 16.6954 4.38465 18.282 5.48027 19.2623C6.57941 20.2458 8.36357 20.2459 9.46255 19.2625L18.3814 11.2821C20.2431 9.61617 20.2433 6.91755 18.3816 5.25178Z" fill="#1D1E20"/>
</svg>
