<svg width="24" height="24" viewBox="0 0 24 24" fill="none" xmlns="http://www.w3.org/2000/svg">
<path fill-rule="evenodd" clip-rule="evenodd" d="M3.60342 2.31071C4.00126 1.88508 4.63431 1.8984 5.01738 2.34045L20.423 20.1182C20.8061 20.5603 20.7941 21.2637 20.3963 21.6893C19.9984 22.1149 19.3654 22.1016 18.9823 21.6596L16.298 18.562C15.0179 19.2743 13.5623 19.7776 11.9998 19.7776C8.15996 19.7776 4.91741 16.7416 3.18096 14.7495C3.16321 14.7291 3.14552 14.7089 3.1279 14.6887C2.71498 14.2159 2.33862 13.785 2.12295 13.0219C2.02966 12.6919 2 12.3141 2 11.9999C2 11.6858 2.02964 11.3079 2.12297 10.9778C2.33878 10.2146 2.71576 9.78303 3.12949 9.30941C3.14707 9.28928 3.16473 9.26907 3.18244 9.24876L3.90069 10.0219L3.18244 9.24876C3.89686 8.42932 4.83488 7.46991 5.94152 6.61078L3.57666 3.88178C3.19359 3.43973 3.20558 2.73634 3.60342 2.31071ZM7.34845 8.23434C6.26797 9.03247 5.33423 9.97451 4.61894 10.7949C4.14698 11.3363 4.094 11.4211 4.03102 11.6439C4.02168 11.6769 4 11.8065 4 11.9999C4 12.1933 4.02168 12.323 4.03105 12.3561C4.09403 12.5789 4.14666 12.6632 4.6176 13.2034C6.30781 15.1425 9.04073 17.5554 11.9998 17.5554C12.9698 17.5554 13.9217 17.2965 14.8307 16.8687L13.2321 15.0239C12.8587 15.2217 12.4411 15.3333 11.9998 15.3333C10.3487 15.3333 9.07414 13.8009 9.07414 12C9.07414 11.4855 9.17697 10.9957 9.36173 10.5576L7.34845 8.23434ZM10.9053 4.30355C11.2636 4.25065 11.6288 4.22222 11.9998 4.22222C15.8397 4.22222 19.0825 7.25831 20.819 9.25044C20.8364 9.2704 20.8538 9.29025 20.871 9.31003C21.2843 9.78329 21.6612 10.2148 21.877 10.9782C21.9702 11.3081 21.9999 11.6859 22 12.0001C22.0001 12.3142 21.9705 12.6923 21.8771 13.0226C21.6617 13.7845 21.2851 14.2155 20.8733 14.6869C20.8582 14.7042 20.8431 14.7215 20.828 14.7389C20.8245 14.743 20.821 14.7471 20.8174 14.7512C20.5412 15.068 20.2329 15.4042 19.8957 15.7464C19.4879 16.1603 18.8554 16.1285 18.4829 15.6754C18.1104 15.2223 18.139 14.5196 18.5468 14.1057C18.8478 13.8002 19.1243 13.499 19.3732 13.2138C19.3767 13.2097 19.3802 13.2056 19.3837 13.2016C19.8538 12.6624 19.9064 12.5781 19.9691 12.3565C19.9691 12.3565 19.9691 12.3563 19.9692 12.3559L19.9697 12.3541L19.9713 12.3473C19.9727 12.3413 19.9744 12.3331 19.9763 12.3225C19.9802 12.3009 19.9843 12.2729 19.988 12.2388C19.9956 12.1696 20 12.0876 20 12.0006C20 11.8071 19.9783 11.6773 19.9689 11.644C19.9059 11.4212 19.8527 11.3361 19.3824 10.7965C17.6922 8.85743 14.959 6.44445 11.9998 6.44445C11.7209 6.44445 11.4438 6.46581 11.1687 6.50641C10.6212 6.58723 10.1184 6.15962 10.0457 5.55131C9.97297 4.94301 10.3578 4.38436 10.9053 4.30355Z" fill="#1D1E20"/>
</svg>
