<svg width="24" height="24" viewBox="0 0 24 24" fill="none" xmlns="http://www.w3.org/2000/svg">
<path fill-rule="evenodd" clip-rule="evenodd" d="M12.0002 6.28571C9.04105 6.28571 6.30781 8.76766 4.6176 10.7621C4.14682 11.3176 4.09404 11.4046 4.03104 11.6338C4.02168 11.6679 4 11.8012 4 12.0001C4 12.1989 4.02168 12.3322 4.03104 12.3663C4.09403 12.5955 4.14672 12.6822 4.6176 13.2379C6.30781 15.2323 9.04105 17.7143 12.0002 17.7143C14.9593 17.7143 17.692 15.2324 19.3822 13.2379C19.853 12.6824 19.9061 12.5951 19.969 12.3663C19.9783 12.3322 20 12.1989 20 12.0001C20 11.8012 19.9783 11.6679 19.969 11.6338C19.906 11.4049 19.8529 11.3175 19.3822 10.7621C17.692 8.76759 14.9593 6.28571 12.0002 6.28571ZM3.18096 9.17192C4.91745 7.12285 8.1603 4 12.0002 4C15.8402 4 19.0824 7.12292 20.8189 9.17192C20.8366 9.1928 20.8542 9.21357 20.8718 9.23427C21.2844 9.72021 21.6614 10.1642 21.8771 10.9489C21.9703 11.2883 22 11.677 22 12.0001C22 12.3232 21.9703 12.7118 21.877 13.0512C21.6614 13.8358 21.2844 14.2798 20.872 14.7655C20.8544 14.7863 20.8366 14.8071 20.8189 14.8281C19.0824 16.8771 15.8402 20 12.0002 20C8.1603 20 4.91745 16.8771 3.18096 14.8281C3.16325 14.8072 3.1456 14.7864 3.12801 14.7657C2.71505 14.2794 2.33865 13.8361 2.12295 13.0512C2.02965 12.7118 2 12.3232 2 12.0001C2 11.677 2.02965 11.2883 2.12295 10.9489C2.33869 10.1639 2.71514 9.72056 3.12829 9.23398C3.14579 9.21338 3.16334 9.1927 3.18096 9.17192L3.751 9.80288L3.18096 9.17192ZM12 10.8572C11.5241 10.8572 11.0743 11.3277 11.0743 12C11.0743 12.6724 11.5241 13.1429 12 13.1429C12.476 13.1429 12.9257 12.6724 12.9257 12C12.9257 11.3277 12.476 10.8572 12 10.8572ZM9.0743 12C9.0743 10.1477 10.3489 8.57146 12 8.57146C13.6512 8.57146 14.9257 10.1477 14.9257 12C14.9257 13.8524 13.6512 15.4286 12 15.4286C10.3489 15.4286 9.0743 13.8524 9.0743 12Z" fill="#1D1E20"/>
</svg>
