<svg width="24" height="24" viewBox="0 0 24 24" fill="none" xmlns="http://www.w3.org/2000/svg">
<path fill-rule="evenodd" clip-rule="evenodd" d="M6.15977 2C6.1732 2 6.18668 2 6.2002 2L17.8407 2C18.3661 1.99998 18.823 1.99996 19.2 2.03275C19.6005 2.06758 20.0004 2.14485 20.384 2.35277C20.9518 2.66058 21.4044 3.14545 21.6841 3.72957C21.8691 4.1158 21.9382 4.51773 21.9698 4.92924C22 5.3222 22 5.80092 22 6.36395V14.5307C22 15.0937 22 15.5722 21.9698 15.965C21.9382 16.3764 21.8691 16.7781 21.6841 17.1642C21.405 17.747 20.9536 18.2331 20.3846 18.5416C20.0011 18.7494 19.6011 18.8266 19.2011 18.8614C18.8244 18.8941 18.368 18.8941 17.8435 18.8941L9.12207 18.8941C8.66374 18.8941 8.5824 18.8994 8.51312 18.9145C8.42871 18.9329 8.34656 18.9634 8.26922 19.0054C8.20293 19.0415 8.13216 19.0952 7.78292 19.3924L7.76737 19.4054L7.76398 19.4081L6.21317 20.728C5.82685 21.0569 5.48497 21.3479 5.19485 21.5519C4.91557 21.7484 4.50547 21.9994 4.00213 22C3.36808 22.0007 2.78885 21.6935 2.41858 21.2C2.13031 20.8158 2.06094 20.3564 2.03094 20.005C1.99996 19.6423 1.99998 19.1812 2 18.6512L2 6.36747C1.99999 5.80327 1.99998 5.3238 2.03018 4.93032C2.06182 4.51831 2.13099 4.11606 2.31609 3.72957C2.59532 3.14656 3.04634 2.66115 3.61525 2.35277C3.99898 2.14476 4.39934 2.06754 4.79983 2.03274C5.17711 1.99996 5.63426 1.99998 6.15977 2ZM4.97296 4.02524C4.70623 4.04841 4.61244 4.08716 4.56835 4.11106C4.38461 4.21065 4.22415 4.37578 4.11989 4.59348C4.087 4.66214 4.04718 4.78559 4.02432 5.08341C4.00069 5.39116 4 5.79324 4 6.40457V18.6082C4 19.1938 4.00088 19.5678 4.02368 19.8349C4.02659 19.8689 4.0297 19.8985 4.03283 19.924C4.03656 19.9214 4.04036 19.9188 4.04424 19.916C4.24923 19.7719 4.51983 19.5429 4.95148 19.1755L6.47544 17.8785L6.49098 17.8656L6.49429 17.8629C6.50999 17.8495 6.52559 17.8362 6.54109 17.823C6.80493 17.598 7.04132 17.3965 7.31415 17.2482C7.55776 17.1158 7.81786 17.0192 8.08649 16.9606C8.39386 16.8934 8.70518 16.8937 9.04994 16.894C9.07382 16.8941 9.09786 16.8941 9.12207 16.8941H17.8031C18.3796 16.8941 18.7482 16.8932 19.0279 16.8689C19.294 16.8458 19.3875 16.8071 19.4315 16.7833C19.6151 16.6837 19.776 16.5181 19.8803 16.3003C19.9132 16.2317 19.9529 16.1086 19.9757 15.8117C19.9993 15.5048 20 15.1037 20 14.4935V6.40108C20 5.79091 19.9993 5.38961 19.9757 5.08241C19.9529 4.78514 19.9131 4.66195 19.8803 4.59348C19.7766 4.37689 19.6156 4.21122 19.4308 4.11106C19.3866 4.08706 19.2929 4.04838 19.0268 4.02523C18.7468 4.00088 18.3778 4 17.8002 4H6.2002C5.62261 4 5.25325 4.00088 4.97296 4.02524ZM7 10.447C7 9.89476 7.44772 9.44705 8 9.44705H8.002C8.27103 9.44705 8.5287 9.55544 8.71683 9.74775C8.90496 9.94005 9.00767 10.2 9.00176 10.469M8.00006 10.447L7.00224 10.4251L7.0022 10.4272L7.99969 10.4491L8 11.447H8.002V10.4492M8.09661 10.4491L9.00176 10.469L9.00171 10.4711C8.99588 10.7369 8.88447 10.9894 8.6921 11.1728C8.49974 11.3563 8.24224 11.4556 7.97651 11.4489L7.97456 11.4488C7.43236 11.435 7 10.9915 7 10.4491V10.447M11 10.447C11 9.89476 11.4477 9.44705 12 9.44705H12.002C12.271 9.44705 12.5287 9.55544 12.7168 9.74775C12.905 9.94005 13.0077 10.2 13.0018 10.469M12.0001 10.447L11.0022 10.4251L11.0022 10.4272L11.9997 10.4491L12 11.447H12.002V10.4492M12.0966 10.4491L13.0018 10.469L13.0017 10.4711C12.9959 10.7369 12.8845 10.9894 12.6921 11.1728C12.4997 11.3563 12.2422 11.4556 11.9765 11.4489L11.9746 11.4488C11.4324 11.435 11 10.9915 11 10.4491V10.447M15 10.447C15 9.89476 15.4477 9.44705 16 9.44705H16.002C16.271 9.44705 16.5287 9.55544 16.7168 9.74775C16.905 9.94005 17.0077 10.2 17.0018 10.469M16.0001 10.447L15.0022 10.4251L15.0022 10.4272L15.9997 10.4491L16 11.447H16.002V10.4492M16.0966 10.4491L17.0018 10.469L17.0017 10.4711C16.9959 10.7369 16.8845 10.9894 16.6921 11.1728C16.4997 11.3563 16.2422 11.4556 15.9765 11.4489L15.9746 11.4488C15.4324 11.435 15 10.9915 15 10.4491V10.447" fill="#1D1E20"/>
<path d="M9 10.45C9 11.0023 8.55229 11.45 8 11.45C7.44772 11.45 7 11.0014 7 10.4491C7 9.89684 7.44772 9.45001 8 9.45001C8.55229 9.45001 9 9.89773 9 10.45Z" fill="#1D1E20"/>
<path d="M13 10.45C13 11.0023 12.5523 11.45 12 11.45C11.4477 11.45 11 11.0014 11 10.4491C11 9.89684 11.4477 9.45001 12 9.45001C12.5523 9.45001 13 9.89773 13 10.45Z" fill="#1D1E20"/>
<path d="M17 10.45C17 11.0023 16.5523 11.45 16 11.45C15.4477 11.45 15 11.0014 15 10.4491C15 9.89684 15.4477 9.45001 16 9.45001C16.5523 9.45001 17 9.89773 17 10.45Z" fill="#1D1E20"/>
</svg>
