<svg width="24" height="24" viewBox="0 0 24 24" fill="none" xmlns="http://www.w3.org/2000/svg">
<path fill-rule="evenodd" clip-rule="evenodd" d="M12 3.81818C7.48131 3.81818 3.81818 7.48131 3.81818 12C3.81818 14.4759 4.91793 16.6949 6.65559 18.1953C8.06961 16.9195 9.94447 16.1414 12 16.1414C14.0556 16.1414 15.9303 16.9195 17.3443 18.1954C19.082 16.695 20.1818 14.4759 20.1818 12C20.1818 7.48131 16.5187 3.81818 12 3.81818ZM15.7826 19.2568C14.7381 18.4432 13.4259 17.9596 12 17.9596C10.5741 17.9596 9.26183 18.4432 8.21733 19.2568C9.34862 19.8477 10.6353 20.1818 12 20.1818C13.3647 20.1818 14.6513 19.8477 15.7826 19.2568ZM2 12C2 6.47715 6.47715 2 12 2C17.5228 2 22 6.47715 22 12C22 17.5228 17.5228 22 12 22C6.47715 22 2 17.5228 2 12ZM12 8.86869C10.8285 8.86869 9.87879 9.81839 9.87879 10.9899C9.87879 12.1614 10.8285 13.1111 12 13.1111C13.1715 13.1111 14.1212 12.1614 14.1212 10.9899C14.1212 9.81839 13.1715 8.86869 12 8.86869ZM8.06061 10.9899C8.06061 8.81423 9.82433 7.05051 12 7.05051C14.1757 7.05051 15.9394 8.81423 15.9394 10.9899C15.9394 13.1656 14.1757 14.9293 12 14.9293C9.82433 14.9293 8.06061 13.1656 8.06061 10.9899Z" fill="#1D1E20"/>
</svg>
