<svg width="24" height="24" viewBox="0 0 24 24" fill="none" xmlns="http://www.w3.org/2000/svg">
<path fill-rule="evenodd" clip-rule="evenodd" d="M11.4776 2.09625C11.9934 1.96055 12.5351 1.9686 13.0464 2.11874C13.6326 2.29086 14.1336 2.70432 14.7058 3.17646C14.7456 3.20933 14.7858 3.24248 14.8263 3.27585L20.4253 7.88175C20.4491 7.90126 20.4726 7.92059 20.4959 7.93977C20.8652 8.24293 21.188 8.50801 21.429 8.84979C21.6381 9.14639 21.7969 9.48134 21.893 9.83987C22.0012 10.2436 22.0007 10.6657 22.0002 11.1411C22.0002 11.1735 22.0001 11.2062 22.0001 11.2391V17.728C22.0002 18.2685 22.0002 18.735 21.9696 19.1193C21.9373 19.5251 21.866 19.9287 21.6734 20.3172C21.3853 20.8981 20.9252 21.3692 20.3615 21.6643C19.9835 21.8622 19.5907 21.9354 19.1958 21.9686C18.8218 22 18.3678 22 17.8417 22H6.15854C5.63245 22 5.17829 22 4.80411 21.9686C4.4092 21.9355 4.01614 21.8622 3.63795 21.6643C3.07346 21.3687 2.61474 20.8974 2.32712 20.3175C2.13431 19.9286 2.06301 19.5245 2.03071 19.1183C2.00011 18.7334 2.00013 18.2661 2.00014 17.7245L2.00014 11.3066C2.00014 11.2721 2.00011 11.2378 2.00007 11.2038C1.99954 10.706 1.99907 10.2674 2.11451 9.85021C2.21574 9.48438 2.38196 9.14075 2.60518 8.83677C2.85984 8.48996 3.20075 8.22566 3.58905 7.92462C3.61467 7.90476 3.6405 7.88473 3.66653 7.86451L9.66752 3.20219C9.70924 3.16977 9.75055 3.13757 9.7915 3.10565C10.3756 2.65034 10.8873 2.25156 11.4776 2.09625ZM19.0255 9.3626L13.5763 4.87994C12.8093 4.24895 12.643 4.13746 12.4968 4.09453C12.326 4.04437 12.1452 4.0418 11.9737 4.08692C11.8265 4.12566 11.6577 4.23217 10.8738 4.84123L5.02311 9.38679L10.6916 13.5754C10.6989 13.5808 10.7062 13.5862 10.7133 13.5918C11.4511 14.1475 11.6096 14.2448 11.7493 14.2819C11.9135 14.3255 12.0865 14.3255 12.2507 14.2819C12.3915 14.2445 12.5519 14.1457 13.3014 13.581L13.3099 13.5746L19.0255 9.3626ZM4.00031 11.1622C4.0002 11.2073 4.00014 11.2554 4.00014 11.3066V17.6849C4.00014 18.2773 4.00092 18.6598 4.02407 18.951C4.04627 19.2303 4.08396 19.3338 4.10914 19.3846C4.20501 19.5779 4.35778 19.7348 4.54593 19.8333C4.59515 19.8591 4.69568 19.8978 4.967 19.9206C5.24994 19.9443 5.62161 19.9451 6.19705 19.9451H17.8032C18.3787 19.9451 18.7501 19.9443 19.0328 19.9206C19.3038 19.8978 19.4042 19.8592 19.4535 19.8333C19.6425 19.7344 19.7959 19.5768 19.8914 19.3843C19.9165 19.3337 19.9541 19.2305 19.9762 18.9519C19.9994 18.6614 20.0001 18.2797 20.0001 17.6884V11.2391C20.0001 11.2165 20.0001 11.1945 20.0001 11.1732L14.4799 15.2412C14.4413 15.2703 14.4031 15.2992 14.3652 15.3278C13.8062 15.7503 13.315 16.1216 12.7515 16.2713C12.2588 16.4023 11.7412 16.4023 11.2485 16.2713C10.6853 16.1217 10.1952 15.7512 9.63714 15.3294C9.59793 15.2998 9.55838 15.2699 9.51845 15.2398C9.51581 15.2378 9.51318 15.2358 9.51056 15.2338L4.00031 11.1622Z" fill="#1D1E20"/>
</svg>
