<svg width="24" height="24" viewBox="0 0 24 24" fill="none" xmlns="http://www.w3.org/2000/svg">
<path fill-rule="evenodd" clip-rule="evenodd" d="M6.16168 4H17.8388C18.3659 3.99998 18.8205 3.99997 19.1949 4.03058C19.5902 4.06289 19.9831 4.13424 20.3614 4.32698C20.9248 4.61405 21.3851 5.07224 21.6732 5.63781C21.8659 6.016 21.9372 6.40906 21.9695 6.80397C22 7.17815 22 7.6323 22 8.15839V15.8421C22 16.3682 22 16.8222 21.9695 17.1962C21.9372 17.591 21.8659 17.9838 21.6732 18.3619C21.3854 18.9269 20.9254 19.3859 20.3614 19.6732C19.9833 19.8659 19.5905 19.9372 19.1957 19.9695C18.8217 20 18.3677 20 17.8416 20H6.15839C5.6323 20 5.17815 20 4.80397 19.9695C4.40906 19.9372 4.016 19.8659 3.63781 19.6732C3.07276 19.3853 2.61431 18.9258 2.32698 18.3619C2.13421 17.9835 2.06288 17.5904 2.03057 17.1951C1.99997 16.8206 1.99998 16.3659 2 15.8388V8.16168C1.99998 7.63451 1.99997 7.17965 2.03057 6.80499C2.06286 6.40962 2.13416 6.01625 2.32698 5.63781C2.6146 5.07332 3.07332 4.6146 3.63781 4.32698C4.01625 4.13416 4.40962 4.06286 4.80499 4.03057C5.17965 3.99997 5.63451 3.99998 6.16168 4ZM5.66103 6.00124L10.7103 9.81425L10.7131 9.81643C11.4509 10.3572 11.6094 10.4519 11.7492 10.4881C11.9134 10.5306 12.0863 10.5306 12.2506 10.4881C12.3908 10.4518 12.5505 10.3563 13.2925 9.81225L13.457 9.68613C13.5687 9.60061 13.7305 9.47669 13.9316 9.323C14.3336 9.01564 14.8925 8.58906 15.52 8.11219C16.3971 7.44563 17.4111 6.67862 18.3186 6.0011C18.1662 6.00009 17.9948 6 17.8002 6H6.2002C5.99674 6 5.8187 6.0001 5.66103 6.00124ZM19.9915 7.24914C18.9855 7.99551 17.7662 8.91716 16.7301 9.70454C16.1045 10.18 15.5472 10.6054 15.1463 10.9119C14.9458 11.0651 14.7845 11.1886 14.6733 11.2738L14.5021 11.4051L14.4839 11.4187C14.4439 11.448 14.4043 11.4772 14.365 11.5061C13.806 11.9173 13.3149 12.2786 12.7514 12.4244C12.2587 12.5518 11.7411 12.5518 11.2484 12.4244C10.6852 12.2787 10.195 11.9181 9.637 11.5076C9.59779 11.4787 9.55824 11.4496 9.51831 11.4204C9.51036 11.4145 9.50249 11.4086 9.49472 11.4025L4.00824 7.25933C4.00037 7.5008 4 7.80175 4 8.2002V15.8002C4 16.3768 4.00078 16.7489 4.02393 17.0322C4.04612 17.3037 4.08378 17.4044 4.109 17.4539C4.20516 17.6426 4.35819 17.7956 4.54579 17.8912C4.59501 17.9163 4.69554 17.9539 4.96686 17.9761C5.2498 17.9992 5.62146 18 6.19691 18H17.8031C18.3786 18 18.75 17.9992 19.0327 17.9761C19.3036 17.954 19.4041 17.9164 19.4534 17.8912C19.6421 17.7951 19.7956 17.6415 19.8912 17.4539C19.9164 17.4046 19.954 17.3041 19.9761 17.0332C19.9992 16.7505 20 16.379 20 15.8036V8.19691C20 7.79441 19.9996 7.49161 19.9915 7.24914Z" fill="#1D1E20"/>
</svg>
