<svg width="24" height="24" viewBox="0 0 24 24" fill="none" xmlns="http://www.w3.org/2000/svg">
<path fill-rule="evenodd" clip-rule="evenodd" d="M19.1637 4.50089C19.1216 4.50039 19.0731 4.50038 19.0103 4.50038H4.98866C4.92589 4.50038 4.87736 4.50039 4.83533 4.50089C4.80417 4.50126 4.781 4.50187 4.7632 4.50263L4.76002 4.5079C4.72845 4.56029 4.68774 4.6339 4.60988 4.77563C4.34816 5.25202 4.18424 5.55191 4.07812 5.77957C4.03343 5.87546 4.01111 5.93418 4.0008 5.96358C4.00217 5.98009 4.00511 5.99514 4.00897 6.0082C4.02898 6.01144 4.05413 6.01488 4.08511 6.01808C4.27608 6.03779 4.54474 6.03881 4.98643 6.03881H6.5089C6.53114 6.0388 6.55342 6.03881 6.57571 6.03881C6.58683 6.03881 6.59795 6.03881 6.60908 6.03881L17.425 6.03881C17.4474 6.03881 17.4697 6.0388 17.4919 6.03881H19.0118C19.4535 6.03881 19.7224 6.0378 19.9137 6.01807C19.9451 6.01483 19.9705 6.01134 19.9907 6.00807C19.9947 5.99496 19.9976 5.9799 19.999 5.96348C19.9887 5.93398 19.9663 5.87521 19.9216 5.77937C19.8154 5.55149 19.6513 5.25143 19.3896 4.77501C19.3123 4.63431 19.2715 4.56081 19.2403 4.50919C19.2389 4.50687 19.2376 4.50469 19.2363 4.50265C19.2184 4.50187 19.1951 4.50126 19.1637 4.50089ZM19.9753 8.51872C20.0105 8.51604 20.0448 8.51301 20.0782 8.50957C20.3598 8.48052 20.7388 8.41195 21.0781 8.1301C21.7211 7.59605 22.0522 6.65762 21.9932 5.72849C21.9626 5.24819 21.7972 4.83706 21.6496 4.52059C21.5013 4.20256 21.2939 3.82511 21.0586 3.39673L21.0383 3.35981C21.029 3.34288 21.0195 3.32561 21.0099 3.30804C20.8953 3.09843 20.7576 2.84676 20.5773 2.64199C20.3411 2.37385 20.0551 2.17682 19.7405 2.07603C19.4987 1.99855 19.251 1.99953 19.0621 2.00027C19.0443 2.00034 19.027 2.00041 19.0103 2.00041H4.98866C4.97193 2.00041 4.95463 2.00034 4.93681 2.00027C4.74789 1.99953 4.50051 1.99856 4.25872 2.07603C3.94424 2.17679 3.65814 2.37378 3.42193 2.64199C3.24246 2.84579 3.10459 3.0981 2.99183 3.30447C2.98141 3.32354 2.9712 3.34221 2.9612 3.36042C2.95464 3.37235 2.94811 3.38424 2.9416 3.39608C2.70593 3.82502 2.49837 4.2028 2.35002 4.52109C2.20246 4.83768 2.03725 5.24852 2.00674 5.72857C1.9478 6.65623 2.27717 7.59528 2.9211 8.1301C3.26027 8.41178 3.63869 8.48047 3.92049 8.50956C3.95419 8.51304 3.98887 8.5161 4.02448 8.5188C4.01104 8.77946 4.01106 9.08316 4.01109 9.40387L4.01109 16.4886C4.01107 17.2033 4.01106 17.8088 4.04115 18.3054C4.07261 18.8246 4.14127 19.3293 4.32452 19.8143C4.60147 20.5471 5.05009 21.1613 5.61946 21.5524C6.00373 21.8164 6.40494 21.9145 6.80564 21.9586C7.18251 22.0002 7.63882 22.0001 8.16199 22.0001H15.8372C16.3603 22.0001 16.8164 22.0002 17.1931 21.9586C17.5938 21.9145 17.9947 21.8163 18.3789 21.5524C18.9469 21.1622 19.3975 20.5489 19.6752 19.8142C19.8583 19.3297 19.9269 18.8255 19.9584 18.307C19.9884 17.8112 19.9884 17.2067 19.9884 16.4935L19.9884 9.39183C19.9884 9.07647 19.9884 8.77674 19.9753 8.51872ZM17.9696 8.55349C17.9663 8.55309 17.9628 8.55269 17.9592 8.55228C17.8469 8.53991 17.689 8.53878 17.3916 8.53878H6.60908C6.31176 8.53878 6.15335 8.5399 6.0407 8.5523C6.03706 8.5527 6.0336 8.5531 6.03031 8.5535C6.02784 8.57398 6.02467 8.60604 6.02183 8.65284C6.01176 8.81922 6.01109 9.04666 6.01109 9.44274V16.4426C6.01109 17.2157 6.01176 17.7258 6.03544 18.1166C6.05839 18.4954 6.09854 18.6555 6.13292 18.7465C6.23884 19.0268 6.40071 19.2365 6.58277 19.3615C6.62522 19.3907 6.7168 19.4392 6.98125 19.4683C7.25975 19.499 7.62699 19.5002 8.20282 19.5002H15.7963C16.3722 19.5002 16.7392 19.499 17.0174 19.4683C17.2815 19.4392 17.373 19.3908 17.4156 19.3615C17.599 19.2355 17.7615 19.0249 17.8668 18.7464C17.9011 18.6556 17.9412 18.4959 17.9641 18.118C17.9877 17.728 17.9884 17.2191 17.9884 16.4475V9.43052C17.9884 9.03851 17.9877 8.81385 17.9777 8.64946C17.975 8.60466 17.972 8.57362 17.9696 8.55349ZM9.00298 14.0195C9.00298 13.3291 9.4507 12.7695 10.003 12.7695H13.9965C14.5488 12.7695 14.9965 13.3291 14.9965 14.0195C14.9965 14.7098 14.5488 15.2694 13.9965 15.2694H10.003C9.4507 15.2694 9.00298 14.7098 9.00298 14.0195Z" fill="#1D1E20"/>
</svg>
