<svg width="24" height="24" viewBox="0 0 24 24" fill="none" xmlns="http://www.w3.org/2000/svg">
<path fill-rule="evenodd" clip-rule="evenodd" d="M12 2C12.2947 2 12.5773 2.10536 12.7857 2.29289L16.119 5.29289C16.5529 5.68342 16.5529 6.31658 16.119 6.70711C15.6851 7.09763 14.9816 7.09763 14.5477 6.70711L13.1111 5.41421V13C13.1111 13.5523 12.6137 14 12 14C11.3864 14 10.8889 13.5523 10.8889 13V5.41421L9.45234 6.70711C9.01843 7.09763 8.31491 7.09763 7.88099 6.70711C7.44708 6.31658 7.44708 5.68342 7.88099 5.29289L11.2143 2.29289C11.4227 2.10536 11.7053 2 12 2ZM6.40916 9L6.4447 9C7.05835 9 7.55581 9.44772 7.55581 10C7.55581 10.5523 7.05835 11 6.4447 11C5.91179 11 5.56775 11.0005 5.30444 11.0167C5.0511 11.0323 4.95462 11.0589 4.90839 11.0761C4.63613 11.1776 4.41957 11.3725 4.3068 11.6175C4.28764 11.6592 4.25807 11.746 4.24079 11.9739C4.22283 12.2108 4.22222 12.5204 4.22222 13V17.8C4.22222 18.3766 4.22309 18.7487 4.24881 19.0319C4.27346 19.3034 4.3153 19.4041 4.34333 19.4536C4.45035 19.6426 4.62055 19.7958 4.82865 19.8912C4.88334 19.9163 4.99505 19.9539 5.29651 19.9761C5.61089 19.9992 6.02385 20 6.66324 20H17.3373C17.9767 20 18.3894 19.9992 18.7035 19.9761C19.0046 19.9539 19.1162 19.9164 19.171 19.8912C19.3797 19.7955 19.5502 19.6421 19.6569 19.4536C19.6848 19.4043 19.7266 19.3038 19.7512 19.0328C19.7769 18.75 19.7778 18.3786 19.7778 17.8031V13C19.7778 12.5204 19.7771 12.2109 19.7592 11.974C19.7419 11.7461 19.7123 11.6593 19.6931 11.6175C19.5802 11.3722 19.3638 11.1775 19.0919 11.0761C19.0456 11.0589 18.9492 11.0323 18.6958 11.0167C18.4325 11.0005 18.0885 11 17.5556 11C16.9419 11 16.4444 10.5523 16.4444 10C16.4444 9.44772 16.9419 9 17.5556 9L17.5911 9C18.0785 8.99999 18.499 8.99998 18.8471 9.02135C19.2136 9.04385 19.5801 9.09336 19.9423 9.22836C20.7594 9.53297 21.408 10.1174 21.7462 10.8522C21.8961 11.178 21.9512 11.5078 21.9762 11.8376C22 12.1512 22 12.5301 22 12.9694V17.8416C22 18.3677 22 18.8217 21.9661 19.1958C21.9302 19.5906 21.851 19.9835 21.6369 20.3616C21.3175 20.9258 20.8074 21.3855 20.1799 21.6732C19.7598 21.8659 19.3234 21.9372 18.8846 21.9695C18.4691 22 17.9646 22 17.3801 22H6.62044C6.03589 22 5.53128 22 5.11552 21.9695C4.67673 21.9372 4.24 21.8659 3.81979 21.6732C3.19161 21.3852 2.6824 20.9252 2.36331 20.3616C2.14913 19.9833 2.06987 19.5902 2.03397 19.1949C1.99996 18.8204 1.99998 18.3657 2 17.8386L2 12.968C1.99999 12.5294 1.99998 12.1509 2.02372 11.8377C2.04873 11.5079 2.10375 11.1781 2.25374 10.8522C2.59205 10.1171 3.24122 9.53284 4.05798 9.22836C4.42012 9.09336 4.78669 9.04385 5.15317 9.02135C5.50123 8.99998 5.92177 8.99999 6.40916 9Z" fill="#1D1E20"/>
</svg>
