<svg width="24" height="24" viewBox="0 0 24 24" fill="none" xmlns="http://www.w3.org/2000/svg">
<path fill-rule="evenodd" clip-rule="evenodd" d="M17.2929 2.29289C17.6834 1.90237 18.3166 1.90237 18.7071 2.29289L21.7071 5.29289C22.0976 5.68342 22.0976 6.31658 21.7071 6.70711L12.7071 15.7071C12.5196 15.8946 12.2652 16 12 16H9C8.44772 16 8 15.5523 8 15V12C8 11.7348 8.10536 11.4804 8.2929 11.2929L17.2929 2.29289ZM16.4142 6L18 7.58579L19.5858 6L18 4.41421L16.4142 6ZM16.5858 9L15 7.41421L10 12.4142V14H11.5858L16.5858 9ZM6.16168 4L9.0002 4C9.55248 4 10.0002 4.44772 10.0002 5C10.0002 5.55228 9.55248 6 9.0002 6H6.2002C5.62365 6 5.25126 6.00078 4.9678 6.02393C4.69595 6.04613 4.59517 6.08383 4.54579 6.10899C4.35763 6.20487 4.20487 6.35763 4.109 6.54579C4.08383 6.59517 4.04614 6.69595 4.02393 6.9678C4.00078 7.25126 4 7.62365 4 8.2002V17.8002C4 18.3768 4.00078 18.7489 4.02393 19.0322C4.04612 19.3037 4.08378 19.4044 4.109 19.4539C4.20516 19.6426 4.35819 19.7956 4.54579 19.8912C4.595 19.9163 4.69554 19.9539 4.96686 19.9761C5.2498 19.9992 5.62146 20 6.19691 20H15.8031C16.3786 20 16.75 19.9992 17.0327 19.9761C17.3036 19.9539 17.4041 19.9164 17.4534 19.8912C17.6418 19.7952 17.7955 19.6416 17.8912 19.4536C17.9163 19.4043 17.9539 19.3038 17.9761 19.0328C17.9992 18.75 18 18.3786 18 17.8031V15C18 14.4477 18.4477 14 19 14C19.5523 14 20 14.4477 20 15V17.8416C20 18.3677 20 18.8217 19.9695 19.1958C19.9372 19.5906 19.8659 19.9835 19.6732 20.3616C19.3855 20.9263 18.9257 21.3857 18.3614 21.6732C17.9833 21.8659 17.5905 21.9372 17.1957 21.9695C16.8217 22 16.3677 22 15.8416 22H6.15839C5.6323 22 5.17815 22 4.80397 21.9695C4.40906 21.9372 4.016 21.8659 3.63781 21.6732C3.07276 21.3853 2.61431 20.9258 2.32698 20.3619C2.13421 19.9835 2.06288 19.5904 2.03057 19.1951C1.99997 18.8206 1.99998 18.3659 2 17.8388V8.16168C1.99998 7.6345 1.99997 7.17965 2.03057 6.80498C2.06286 6.40962 2.13416 6.01624 2.32698 5.63781C2.6146 5.07332 3.07332 4.6146 3.63781 4.32698C4.01625 4.13416 4.40962 4.06286 4.80499 4.03057C5.17965 3.99997 5.63451 3.99998 6.16168 4Z" fill="#1D1E20"/>
</svg>
