<svg width="24" height="24" viewBox="0 0 24 24" fill="none" xmlns="http://www.w3.org/2000/svg">
<path fill-rule="evenodd" clip-rule="evenodd" d="M12.4165 4.3197C12.1516 4.18973 11.848 4.18973 11.5831 4.3197C11.535 4.3433 11.3997 4.43435 11.1261 4.86095C10.8552 5.28342 10.5381 5.88625 10.07 6.77959L5.178 16.1145C4.70946 17.0085 4.39401 17.6129 4.19738 18.0827C3.99842 18.5582 3.99613 18.7298 4.0011 18.7819C4.03065 19.0917 4.17854 19.3764 4.4118 19.5631C4.45448 19.5973 4.59512 19.6814 5.06914 19.7293C5.53762 19.7767 6.17097 19.7778 7.1071 19.7778H16.8928C17.829 19.7778 18.4623 19.7767 18.9307 19.7293C19.4047 19.6814 19.5453 19.5973 19.588 19.5631C19.8214 19.3763 19.9693 19.0916 19.9988 18.7819C20.0038 18.7298 20.0015 18.5581 19.8026 18.0827C19.606 17.6128 19.2906 17.0085 18.8221 16.1145L13.9309 6.78116C13.4624 5.88715 13.1451 5.28397 12.874 4.86134C12.6003 4.43461 12.4649 4.34341 12.4165 4.3197ZM10.7754 2.28676C11.5549 1.90441 12.4448 1.90441 13.2242 2.28676C13.7746 2.55674 14.168 3.04984 14.5027 3.57157C14.8341 4.08831 15.1978 4.78234 15.6361 5.61877L20.5729 15.039C21.0115 15.8761 21.3755 16.5707 21.6162 17.1458C21.8586 17.7252 22.0512 18.3503 21.9877 19.0162C21.8977 19.9593 21.4486 20.8126 20.757 21.3662C20.2697 21.7563 19.687 21.8843 19.112 21.9424C18.5419 22 17.8166 22 16.9414 22H7.05858C6.18331 22 5.45804 22 4.88791 21.9424C4.31282 21.8843 3.73013 21.7563 3.24277 21.3662C2.55107 20.8125 2.1022 19.9591 2.01224 19.0162C1.94871 18.3502 2.1414 17.7251 2.38384 17.1458C2.6244 16.5709 2.98819 15.8768 3.42651 15.0404L8.36622 5.61443C8.80347 4.78002 9.16647 4.08731 9.49734 3.57138C9.83174 3.04993 10.225 2.55673 10.7754 2.28676ZM12 7.5556C12.5523 7.5556 13 8.05306 13 8.66671V13.1111C13 13.7248 12.5523 14.2223 12 14.2223C11.4477 14.2223 11 13.7248 11 13.1111V8.66671C11 8.05306 11.4477 7.5556 12 7.5556ZM10.9497 16.4445C10.9497 15.8308 11.3975 15.3334 11.9497 15.3334H12.0512C12.6035 15.3334 13.0512 15.8308 13.0512 16.4445V16.5556C13.0512 17.1684 12.6047 17.6655 12.0531 17.6667L11.9517 17.6669C11.6861 17.6675 11.4313 17.5507 11.2433 17.3422C11.0554 17.1338 10.9497 16.8508 10.9497 16.5558V16.4445Z" fill="#1D1E20"/>
</svg>
