<svg width="26" height="26" viewBox="0 0 26 26" fill="none" xmlns="http://www.w3.org/2000/svg">
<path fill-rule="evenodd" clip-rule="evenodd" d="M14.6175 5.00262C14.5987 5.00096 14.5703 5.00002 14.3886 5.00002H11.6113C11.4297 5.00002 11.4019 5.00096 11.383 5.00262C11.1 5.02766 10.7285 5.26218 10.5401 5.80387C10.5248 5.84797 10.5089 5.90334 10.4538 6.10176L10.4526 6.10579L10.4518 6.10861C10.4285 6.1925 10.414 6.24469 10.4037 6.2842C10.3964 6.31207 10.3939 6.32364 10.3934 6.32575C10.3742 6.43607 10.4002 6.53135 10.4334 6.58678C10.4365 6.59183 10.4393 6.59617 10.4418 6.59987L10.489 6.60002L15.5103 6.60002L15.5585 6.59987C15.561 6.59626 15.5637 6.59205 15.5666 6.58718C15.5998 6.53186 15.6258 6.43645 15.6065 6.32572C15.6065 6.32572 15.6035 6.31185 15.5957 6.28226C15.5851 6.24162 15.5702 6.18784 15.5462 6.10165C15.4915 5.90456 15.4752 5.84827 15.4598 5.80387C15.2712 5.26171 14.9002 5.02763 14.6175 5.00262ZM17.6005 6.60002C17.6195 6.38788 17.6112 6.176 17.5753 5.97405C17.555 5.85973 17.5192 5.73119 17.483 5.60143C17.4798 5.58974 17.4765 5.57805 17.4733 5.56636L17.4679 5.54687C17.4227 5.38415 17.3885 5.26109 17.3488 5.14695C16.9568 4.01967 16.0146 3.1184 14.7938 3.0104C14.6749 2.99989 14.5507 2.99995 14.4192 3.00001C14.409 3.00001 14.3988 3.00002 14.3886 3.00002H11.6113C11.6011 3.00002 11.5909 3.00001 11.5808 3.00001C11.4492 2.99995 11.3257 2.99989 11.2068 3.0104C9.98645 3.11836 9.04325 4.01919 8.65106 5.14695C8.61199 5.25931 8.57821 5.38099 8.53452 5.53835C8.53196 5.5476 8.52936 5.55697 8.52672 5.56647L8.52591 5.56928L8.52479 5.57331C8.52162 5.5847 8.51845 5.5961 8.51527 5.60752C8.48015 5.73359 8.44479 5.86055 8.42463 5.97394C8.3887 6.17598 8.38046 6.38789 8.39947 6.60002H7.2002C7.18538 6.60002 7.17061 6.60002 7.15589 6.60002C6.63377 6.59999 6.1717 6.59996 5.78885 6.63749C5.37696 6.67786 4.96294 6.76828 4.57015 7.00844C3.99613 7.35942 3.56119 7.89838 3.29753 8.51934C3.12594 8.92344 3.06015 9.34632 3.02956 9.79578C2.99998 10.2303 2.99999 10.7631 3 11.406V18.1946C2.99999 18.8375 2.99998 19.3699 3.02956 19.8041C3.06017 20.2534 3.12601 20.6758 3.29753 21.0797C3.5607 21.6995 3.99517 22.2403 4.57015 22.5919C4.96269 22.8319 5.37639 22.9222 5.78782 22.9626C6.17019 23.0001 6.63155 23 7.15259 23H18.8475C19.3685 23 19.8296 23.0001 20.2118 22.9626C20.6232 22.9222 21.0366 22.8318 21.429 22.5919C22.0031 22.2409 22.439 21.7007 22.7027 21.0797C22.8741 20.676 22.9399 20.2538 22.9705 19.805C23 19.3713 23 18.8396 23 18.198V11.402C23 10.7604 23 10.2285 22.9705 9.79457C22.9399 9.34567 22.8741 8.92316 22.7027 8.51934C22.4385 7.89722 22.0021 7.35883 21.429 7.00844C21.0364 6.7684 20.6229 6.6779 20.211 6.63749C19.8284 6.59996 19.3666 6.59999 18.8446 6.60002L17.6005 6.60002ZM15.5244 8.60002L15.5279 8.60002C15.5356 8.60002 15.5437 8.60003 15.5521 8.60002H18.8002C19.38 8.60002 19.7426 8.60114 20.0158 8.62794C20.2705 8.65293 20.3505 8.69323 20.3857 8.71476C20.5653 8.82457 20.7424 9.01995 20.8618 9.30101C20.9081 9.41008 20.9512 9.57988 20.9751 9.93046C20.9995 10.2883 21 10.7518 21 11.4363V18.1637C21 18.8483 20.9995 19.3115 20.9751 19.6691C20.9512 20.0193 20.9081 20.1889 20.8618 20.2981C20.7419 20.5803 20.5644 20.7763 20.3857 20.8855C20.3507 20.9069 20.2709 20.9472 20.0165 20.9721C19.7437 20.9989 19.3818 21 18.8031 21H7.19691C6.61821 21 6.25605 20.9989 5.98301 20.9721C5.72821 20.9471 5.64831 20.9068 5.61345 20.8855C5.43578 20.7769 5.25877 20.5814 5.13845 20.2981C5.09198 20.1886 5.04882 20.0188 5.02494 19.6681C5.00054 19.3101 5 18.8461 5 18.1603V11.4403C5 10.7544 5.00054 10.2901 5.02494 9.9316C5.04884 9.5804 5.09204 9.4103 5.13845 9.30101C5.25828 9.0188 5.43482 8.82398 5.61345 8.71476C5.64848 8.69335 5.7286 8.65297 5.98394 8.62795C6.25751 8.60113 6.6204 8.60002 7.2002 8.60002H10.4482C10.4564 8.60003 10.4644 8.60002 10.4719 8.60002L10.4754 8.60002C10.4799 8.60002 10.4843 8.60002 10.4885 8.60002L15.5108 8.60002C15.5151 8.60002 15.5199 8.60002 15.5244 8.60002ZM13 12.2C12.0584 12.2 11 13.1856 11 14.8C11 16.4144 12.0584 17.4 13 17.4C13.9416 17.4 15 16.4144 15 14.8C15 13.1856 13.9416 12.2 13 12.2ZM9 14.8C9 12.438 10.6279 10.2 13 10.2C15.3721 10.2 17 12.438 17 14.8C17 17.1621 15.3721 19.4 13 19.4C10.6279 19.4 9 17.1621 9 14.8Z" fill="#1D1E20"/>
</svg>
