<svg width="24" height="24" viewBox="0 0 24 24" fill="none" xmlns="http://www.w3.org/2000/svg">
<path fill-rule="evenodd" clip-rule="evenodd" d="M7.12017 5.77311C5.86083 6.26285 5.57143 6.7544 5.57143 7C5.57143 7.2456 5.86083 7.73715 7.12017 8.22689C8.3026 8.68673 10.0261 9 12 9C13.9739 9 15.6974 8.68673 16.8798 8.22689C18.1392 7.73715 18.4286 7.2456 18.4286 7C18.4286 6.7544 18.1392 6.26285 16.8798 5.77311C15.6974 5.31327 13.9739 5 12 5C10.0261 5 8.3026 5.31327 7.12017 5.77311ZM18.4286 9.85004C18.297 9.90842 18.1638 9.96366 18.0298 10.0157C16.4202 10.6417 14.2866 11 12 11C9.71344 11 7.57978 10.6417 5.97019 10.0157C5.83624 9.96366 5.70302 9.90842 5.57143 9.85004V12C5.57143 12.2456 5.86083 12.7372 7.12017 13.2269C8.3026 13.6867 10.0261 14 12 14C13.9739 14 15.6974 13.6867 16.8798 13.2269C18.1392 12.7372 18.4286 12.2456 18.4286 12V9.85004ZM18.4286 14.85C18.297 14.9084 18.1638 14.9637 18.0298 15.0157C16.4202 15.6417 14.2866 16 12 16C9.71344 16 7.57978 15.6417 5.97019 15.0157C5.83624 14.9637 5.70302 14.9084 5.57143 14.85V17C5.57143 17.2456 5.86083 17.7372 7.12016 18.2269C8.30259 18.6867 10.0261 19 12 19C13.9739 19 15.6974 18.6867 16.8798 18.2269C18.1392 17.7372 18.4286 17.2456 18.4286 17V14.85ZM3 17C3 18.4113 4.4375 19.4197 5.97019 20.0157C7.57978 20.6417 9.71344 21 12 21C14.2866 21 16.4202 20.6417 18.0298 20.0157C19.5625 19.4197 21 18.4113 21 17V7C21 5.58874 19.5625 4.5803 18.0298 3.98425C16.4202 3.3583 14.2866 3 12 3C9.71344 3 7.57978 3.3583 5.97019 3.98425C4.4375 4.5803 3 5.58874 3 7V17Z" fill="#1D1E20"/>
</svg>
