<svg width="24" height="24" viewBox="0 0 24 24" fill="none" xmlns="http://www.w3.org/2000/svg">
<path fill-rule="evenodd" clip-rule="evenodd" d="M9.158 2H17.8425C18.3664 1.99998 18.8255 1.99995 19.205 2.03486C19.6105 2.07215 20.0167 2.15526 20.4047 2.37766C20.9756 2.70489 21.4208 3.21433 21.6932 3.81571C21.8716 4.20973 21.9391 4.62064 21.9701 5.04864C22 5.45987 22 5.96235 22 6.56072V14.0643C22 14.6626 22 15.1649 21.9701 15.576C21.939 16.0039 21.8716 16.4145 21.6932 16.8084C21.4214 17.4084 20.977 17.9197 20.4049 18.2476C20.0171 18.4699 19.6109 18.5529 19.2059 18.5902C18.8267 18.625 18.3682 18.625 17.8453 18.625L10.9874 18.625C10.9832 18.7394 10.9776 18.848 10.9701 18.9509C10.939 19.3789 10.8716 19.7895 10.6932 20.1834C10.4213 20.7836 9.97658 21.2948 9.4047 21.6226C9.01691 21.8449 8.61083 21.9279 8.20579 21.9652C7.82665 22 7.36817 22 6.84532 22H6.15475C5.63185 22 5.17318 22 4.79386 21.9652C4.3888 21.9279 3.98241 21.8449 3.59449 21.6226C3.0216 21.2942 2.5784 20.7825 2.30706 20.1834C2.12855 19.7892 2.06101 19.3785 2.02988 18.9501C1.99998 18.5386 1.99999 18.0356 2 17.4361V11.0644C1.99999 10.4648 1.99998 9.96155 2.02987 9.54978C2.06099 9.12125 2.12848 8.71 2.30706 8.31571C2.57892 7.71547 3.02261 7.20547 3.59449 6.87766C3.98266 6.65516 4.38936 6.57211 4.79489 6.53485C4.86088 6.52879 4.92928 6.52378 5 6.51964C5.00001 5.93973 5.00073 5.45126 5.02987 5.04978C5.06099 4.62125 5.12848 4.21 5.30706 3.81571C5.57892 3.21547 6.02261 2.70547 6.59449 2.37766C6.98266 2.15516 7.38936 2.07212 7.79489 2.03485C8.17468 1.99995 8.63403 1.99998 9.158 2ZM7.00001 6.50003C7.45876 6.50033 7.86399 6.5035 8.20499 6.53486C8.61047 6.57215 9.01672 6.65526 9.4047 6.87766C9.97557 7.2049 10.4208 7.71433 10.6932 8.31571C10.8716 8.70973 10.9391 9.12064 10.9702 9.54864C11 9.95988 11 10.4624 11 11.0608V16.625H17.8031C18.3806 16.625 18.7461 16.624 19.0227 16.5986C19.2836 16.5746 19.3707 16.5351 19.4103 16.5124C19.5909 16.4089 19.7596 16.23 19.8713 15.9833C19.9107 15.8963 19.9521 15.7521 19.9754 15.431C19.9994 15.1011 20 14.672 20 14.0285V6.59653C20 5.95302 19.9994 5.52364 19.9754 5.19354C19.9521 4.87204 19.9106 4.72765 19.8713 4.64084C19.7602 4.39549 19.5919 4.21701 19.4101 4.11281C19.3703 4.08998 19.283 4.05047 19.0218 4.02645C18.7449 4.00099 18.3788 4 17.8002 4H9.2002C8.62162 4 8.25516 4.00098 7.97789 4.02646C7.7162 4.05051 7.62876 4.09008 7.58911 4.11281C7.40834 4.21643 7.24055 4.39435 7.12891 4.64084C7.08951 4.72785 7.04801 4.87252 7.02462 5.1946C7.00188 5.50785 7.00013 5.91041 7.00001 6.50003ZM8.02182 8.52645C7.7449 8.50099 7.37881 8.5 6.8002 8.5H6.2002C5.62162 8.5 5.25516 8.50098 4.97789 8.52646C4.7162 8.55051 4.62876 8.59008 4.58911 8.61281C4.40834 8.71643 4.24055 8.89435 4.12891 9.14084C4.08951 9.22785 4.04801 9.37252 4.02462 9.6946C4.00062 10.0253 4 10.4555 4 11.1002V17.4002C4 18.045 4.00062 18.4748 4.02462 18.8051C4.04798 19.1266 4.08944 19.2711 4.12891 19.3583C4.24107 19.6059 4.40934 19.7844 4.58911 19.8874C4.62859 19.9101 4.7158 19.9496 4.97696 19.9736C5.25371 19.999 5.61943 20 6.19691 20H6.80309C7.3806 20 7.74607 19.999 8.02258 19.9736C8.28336 19.9496 8.37048 19.9101 8.41009 19.8874C8.59086 19.7838 8.75966 19.6047 8.8713 19.3583C8.91066 19.2713 8.95207 19.1271 8.97541 18.806C8.99938 18.4761 9 18.047 9 17.4035V11.0965C9 10.453 8.99939 10.0236 8.97541 9.69354C8.95205 9.37204 8.91062 9.22765 8.8713 9.14084C8.76018 8.89549 8.59187 8.71701 8.41009 8.61281C8.37025 8.58998 8.28295 8.55047 8.02182 8.52645Z" fill="#1D1E20"/>
</svg>
