<svg width="24" height="24" viewBox="0 0 24 24" fill="none" xmlns="http://www.w3.org/2000/svg">
<path fill-rule="evenodd" clip-rule="evenodd" d="M6.15357 2C6.16906 2 6.1846 2 6.2002 2L17.8469 2C18.3669 1.99997 18.8318 1.99993 19.2179 2.04052C19.6373 2.08459 20.0586 2.18383 20.4554 2.44379C21.0292 2.81969 21.456 3.38971 21.7119 4.03532C21.8765 4.45067 21.9407 4.88719 21.9708 5.36067C22 5.82086 22 6.38676 22 7.07777V16.9224C22 17.6133 22 18.1789 21.9708 18.6389C21.9407 19.1122 21.8765 19.5484 21.7119 19.9636C21.4565 20.6081 21.0301 21.18 20.4554 21.5565C20.0588 21.8163 19.6376 21.9155 19.2187 21.9595C18.833 22.0001 18.3687 22 17.8497 22H6.15031C5.6313 22 5.1668 22.0001 4.78092 21.9595C4.362 21.9155 3.94057 21.8164 3.54381 21.5565C2.96819 21.1794 2.54325 20.6069 2.28833 19.9636C2.12366 19.5481 2.0594 19.1117 2.02926 18.6378C1.99999 18.1774 1.99999 17.611 2 16.9186V7.08193C1.99999 6.38955 1.99999 5.82276 2.02926 5.36196C2.05938 4.88787 2.12361 4.45097 2.28833 4.03532C2.54372 3.39088 2.9691 2.82028 3.54381 2.44379C3.94083 2.1837 4.36258 2.08455 4.78195 2.04051C5.1683 1.99993 5.63349 1.99997 6.15357 2ZM4.99083 4.02957C4.74299 4.0556 4.67059 4.09658 4.63978 4.11676C4.46185 4.23333 4.27575 4.44891 4.14765 4.77216C4.09438 4.90657 4.04962 5.105 4.02524 5.48876C4.00047 5.8786 4 6.38162 4 7.11454V16.886C4 17.6189 4.00047 18.1215 4.02523 18.5109C4.0496 18.8941 4.09433 19.0923 4.14765 19.2268C4.27621 19.5512 4.46276 19.7676 4.63978 19.8835C4.67043 19.9036 4.7426 19.9445 4.9899 19.9705C5.25873 19.9987 5.61682 20 6.19691 20H17.8031C18.3832 20 18.741 19.9987 19.0096 19.9705C19.2565 19.9445 19.3286 19.9037 19.3594 19.8835C19.5373 19.767 19.7245 19.5501 19.8526 19.2268C19.9058 19.0925 19.9505 18.8946 19.9748 18.5119C19.9995 18.123 20 17.6212 20 16.8897V7.11032C20 6.3788 19.9995 5.87672 19.9748 5.48754C19.9504 5.10444 19.9057 4.90634 19.8526 4.77216C19.7249 4.45008 19.5383 4.23392 19.3594 4.11676C19.3284 4.09645 19.2561 4.05555 19.0089 4.02956C18.7399 4.00129 18.3814 4 17.8002 4H6.2002C5.61901 4 5.26019 4.00128 4.99083 4.02957ZM6.31768 8.69752C6.72143 8.32069 7.35422 8.34251 7.73106 8.74626L10.7311 11.9605C11.0896 12.3447 11.0896 12.941 10.7311 13.3252L7.73106 16.5395C7.35422 16.9432 6.72143 16.965 6.31768 16.5882C5.91393 16.2114 5.89211 15.5786 6.26895 15.1748L8.63211 12.6429L6.26895 10.1109C5.89211 9.70714 5.91393 9.07435 6.31768 8.69752ZM11 15.8571C11 15.3049 11.4477 14.8571 12 14.8571H17C17.5523 14.8571 18 15.3049 18 15.8571C18 16.4094 17.5523 16.8571 17 16.8571H12C11.4477 16.8571 11 16.4094 11 15.8571Z" fill="#1D1E20"/>
</svg>
