<svg width="24" height="24" viewBox="0 0 24 24" fill="none" xmlns="http://www.w3.org/2000/svg">
<path fill-rule="evenodd" clip-rule="evenodd" d="M6.158 2C6.17202 2 6.18608 2 6.2002 2L17.8425 2C18.3664 1.99998 18.8255 1.99995 19.205 2.03486C19.6105 2.07215 20.0167 2.15526 20.4047 2.37766C20.9756 2.7049 21.4208 3.21434 21.6932 3.8157C21.7902 4.02992 21.8327 4.30107 21.8547 4.44994C21.8838 4.64648 21.9077 4.87292 21.9264 5.09328C21.9287 5.11951 21.9308 5.1459 21.933 5.17241C21.9333 5.17651 21.9336 5.18062 21.9339 5.18473C21.9614 5.53065 21.9794 5.89384 21.9813 6.14663C21.983 6.15593 21.9844 6.1635 21.9853 6.16899C21.9922 6.21039 21.995 6.24321 21.9958 6.25355C21.998 6.27918 21.9986 6.29995 21.9989 6.30604C21.9994 6.32224 21.9996 6.33784 21.9997 6.34667C22 6.38273 22 6.45543 22 6.58241L22 17.4392C22 18.0376 22 18.5399 21.9701 18.9509C21.939 19.3789 21.8716 19.7895 21.6932 20.1834C21.4213 20.7836 20.9766 21.2948 20.4047 21.6226C20.0169 21.8449 19.6108 21.9279 19.2058 21.9652C18.8267 22 18.3682 22 17.8453 22L6.15478 22C5.63187 22 5.1732 22 4.79387 21.9652C4.3888 21.9279 3.98241 21.8449 3.59449 21.6226C3.0216 21.2942 2.5784 20.7825 2.30706 20.1834C2.12855 19.7892 2.06101 19.3785 2.02988 18.9501C1.99998 18.5386 1.99999 18.0356 2 17.4361L2.00004 6.38036L2.0001 6.37107L2.00043 6.35319L2.00101 6.3367C2.00119 6.33298 2.00163 6.32577 2.00222 6.31718C2.00075 6.29498 2 6.27258 2 6.25C2 6.16501 2.0106 6.0825 2.03056 6.00372C2.0426 5.76674 2.06035 5.42436 2.08505 5.09829C2.10141 4.88225 2.12193 4.65744 2.14809 4.46211C2.16744 4.31757 2.20633 4.03811 2.30706 3.81571C2.57892 3.21547 3.02261 2.70547 3.59449 2.37766C3.98266 2.15516 4.38936 2.07212 4.79489 2.03485C5.17467 1.99995 5.63403 1.99998 6.158 2ZM4 7.25V17.4002C4 18.045 4.00062 18.4748 4.02462 18.8051C4.04798 19.1266 4.08944 19.2711 4.12891 19.3582C4.24107 19.6059 4.40935 19.7844 4.58911 19.8874C4.62859 19.9101 4.71581 19.9496 4.97697 19.9736C5.25372 19.999 5.61945 20 6.19694 20L17.8031 20C18.3806 20 18.7461 19.999 19.0226 19.9736C19.2834 19.9496 19.3705 19.9101 19.4101 19.8874C19.5909 19.7838 19.7597 19.6047 19.8713 19.3582C19.9107 19.2713 19.9521 19.1271 19.9754 18.806C19.9994 18.4761 20 18.047 20 17.4034L20 7.25H4ZM19.9325 5.25H4.07928C4.0945 5.04918 4.11167 4.86737 4.1304 4.72754C4.13843 4.66751 4.14569 4.62337 4.15148 4.59345C4.26251 4.37144 4.42013 4.20967 4.58911 4.11281C4.62876 4.09008 4.7162 4.05051 4.97789 4.02646C5.25516 4.00098 5.62162 4 6.2002 4H17.8002C18.3788 4 18.7449 4.00099 19.0218 4.02645C19.283 4.05047 19.3703 4.08998 19.4101 4.11281C19.5813 4.21093 19.7405 4.37491 19.8513 4.59859C19.858 4.63006 19.8666 4.67767 19.8763 4.74285C19.8966 4.8802 19.9159 5.05706 19.9325 5.25ZM9.33564 10.1276C9.74842 9.76067 10.3805 9.79786 10.7474 10.2106L12 11.6198L13.2526 10.2106C13.6195 9.79786 14.2515 9.76067 14.6643 10.1276C15.0771 10.4945 15.1143 11.1266 14.7474 11.5394L13.3379 13.125L14.7474 14.7106C15.1143 15.1234 15.0771 15.7555 14.6643 16.1224C14.2515 16.4893 13.6195 16.4521 13.2526 16.0393L12 14.6302L10.7474 16.0393C10.3805 16.4521 9.74842 16.4893 9.33564 16.1224C8.92285 15.7555 8.88567 15.1234 9.25259 14.7106L10.662 13.125L9.25259 11.5394C8.88567 11.1266 8.92285 10.4945 9.33564 10.1276Z" fill="#1D1E20"/>
</svg>
