<svg width="24" height="24" viewBox="0 0 24 24" fill="none" xmlns="http://www.w3.org/2000/svg">
<path fill-rule="evenodd" clip-rule="evenodd" d="M14 3C14 2.44772 14.4477 2 15 2H21C21.5523 2 22 2.44772 22 3V9C22 9.55229 21.5523 10 21 10C20.4477 10 20 9.55229 20 9V5.41421L13.3071 12.1071C12.9166 12.4976 12.2834 12.4976 11.8929 12.1071C11.5024 11.7166 11.5024 11.0834 11.8929 10.6929L18.5858 4H15C14.4477 4 14 3.55228 14 3ZM6.80038 3.2L9.00024 3.2C9.55252 3.2 10.0002 3.64772 10.0002 4.2C10.0002 4.75228 9.55252 5.2 9.00024 5.2H6.84024C6.15168 5.2 5.69526 5.20078 5.34508 5.22938C5.00651 5.25703 4.85632 5.30563 4.76415 5.35259C4.50072 5.48681 4.28681 5.70072 4.15259 5.96415C4.10563 6.05631 4.05703 6.2065 4.02938 6.54508C4.00078 6.89526 4 7.35168 4 8.04023V17.1602C4 17.8488 4.00078 18.305 4.02938 18.6549C4.05702 18.9931 4.10558 19.1432 4.15259 19.2355C4.2871 19.4995 4.50129 19.7137 4.76415 19.8477C4.8561 19.8945 5.006 19.943 5.34394 19.9707C5.69351 19.9992 6.14905 20 6.83629 20H15.9637C16.651 20 17.1062 19.9992 17.4555 19.9707C17.7931 19.9431 17.9428 19.8946 18.0349 19.8477C18.2985 19.7133 18.5135 19.4983 18.6477 19.2351C18.6946 19.1431 18.7431 18.9933 18.7707 18.6557C18.7992 18.3063 18.8 17.851 18.8 17.1637V15C18.8 14.4477 19.2477 14 19.8 14C20.3523 14 20.8 14.4477 20.8 15V17.2036C20.8 17.8404 20.8 18.378 20.764 18.8186C20.7263 19.2801 20.6441 19.7223 20.4297 20.1431C20.1036 20.7831 19.5824 21.3038 18.9429 21.6297C18.5221 21.8441 18.08 21.9263 17.6185 21.964C17.178 22 16.6404 22 16.0037 22H6.79643C6.15962 22 5.62179 22 5.18105 21.964C4.71952 21.9263 4.2771 21.8442 3.85617 21.6297C3.21585 21.3034 2.69626 20.7826 2.37058 20.1435C2.15601 19.7223 2.07378 19.2798 2.03602 18.8178C1.99997 18.3767 1.99999 17.8382 2 17.2001V8.00038C1.99999 7.36226 1.99997 6.82358 2.03602 6.38226C2.07376 5.92017 2.15596 5.47739 2.37058 5.05617C2.69655 4.41641 3.21642 3.89655 3.85617 3.57058C4.27739 3.35596 4.72017 3.27376 5.18226 3.23602C5.62359 3.19997 6.16226 3.19998 6.80038 3.2Z" fill="#1D1E20"/>
</svg>
