<svg width="24" height="24" viewBox="0 0 24 24" fill="none" xmlns="http://www.w3.org/2000/svg">
<path fill-rule="evenodd" clip-rule="evenodd" d="M12 4.22222C10.0207 4.22222 8.44445 5.86344 8.44445 7.85185C8.44445 9.84026 10.0207 11.4815 12 11.4815C13.9793 11.4815 15.5556 9.84026 15.5556 7.85185C15.5556 5.86344 13.9793 4.22222 12 4.22222ZM6.31111 7.85185C6.31111 4.60379 8.87377 2 12 2C15.1262 2 17.6889 4.60379 17.6889 7.85185C17.6889 11.0999 15.1262 13.7037 12 13.7037C8.87377 13.7037 6.31111 11.0999 6.31111 7.85185ZM6.51206 16.6078C7.96417 15.6149 9.90749 15.037 12 15.037C14.0925 15.037 16.0358 15.6149 17.4879 16.6078C18.931 17.5945 20 19.0846 20 20.8889C20 21.5025 19.5224 22 18.9333 22C18.3442 22 17.8667 21.5025 17.8667 20.8889C17.8667 20.075 17.3836 19.1947 16.3173 18.4656C15.26 17.7426 13.7367 17.2593 12 17.2593C10.2633 17.2593 8.73999 17.7426 7.68273 18.4656C6.61642 19.1947 6.13333 20.075 6.13333 20.8889C6.13333 21.5025 5.65577 22 5.06667 22C4.47756 22 4 21.5025 4 20.8889C4 19.0846 5.06899 17.5945 6.51206 16.6078Z" fill="#1D1E20"/>
</svg>
