<svg width="24" height="24" viewBox="0 0 24 24" fill="none" xmlns="http://www.w3.org/2000/svg">
<path fill-rule="evenodd" clip-rule="evenodd" d="M7.55556 2C8.16921 2 8.66667 2.44772 8.66667 3V4H15.3333V3C15.3333 2.44772 15.8308 2 16.4444 2C17.0581 2 17.5556 2.44772 17.5556 3V4.00003C18.0656 4.00031 18.5102 4.00313 18.8832 4.03057C19.3224 4.06289 19.759 4.13424 20.1793 4.32698C20.8053 4.61405 21.3167 5.07224 21.6369 5.63781C21.851 6.016 21.9302 6.40906 21.9661 6.80396C22 7.17815 22 7.6323 22 8.15839V17.8421C22 18.3682 22 18.8221 21.9661 19.1962C21.9302 19.591 21.851 19.9838 21.6369 20.3619C21.3171 20.9269 20.8059 21.3859 20.1793 21.6732C19.7592 21.8659 19.3228 21.9372 18.8841 21.9695C18.4685 22 17.9641 22 17.3796 22H6.62044C6.03589 22 5.53128 22 5.11552 21.9695C4.67673 21.9372 4.24 21.8659 3.81979 21.6732C3.19195 21.3853 2.68257 20.9258 2.36331 20.3619C2.14912 19.9835 2.06987 19.5904 2.03397 19.1951C1.99996 18.8206 1.99998 18.3659 2 17.8388V8.16168C1.99998 7.6345 1.99996 7.17965 2.03397 6.80498C2.06985 6.40962 2.14906 6.01624 2.36331 5.63781C2.68289 5.07332 3.19258 4.6146 3.81979 4.32698C4.24027 4.13416 4.67735 4.06286 5.11665 4.03057C5.48977 4.00314 5.93447 4.00031 6.44445 4.00003V3C6.44445 2.44772 6.94191 2 7.55556 2ZM5.29755 6.02393C4.9955 6.04613 4.88353 6.08383 4.82865 6.10899C4.61959 6.20487 4.44985 6.35763 4.34333 6.54579C4.31537 6.59517 4.27348 6.69595 4.24881 6.9678C4.2262 7.21702 4.2228 7.53498 4.2223 8H19.7777C19.7772 7.53429 19.7739 7.21614 19.7512 6.96686C19.7266 6.69554 19.6848 6.595 19.6569 6.54579C19.551 6.35871 19.3807 6.20542 19.1705 6.10899C19.1154 6.08374 19.0036 6.0461 18.7021 6.02392C18.3876 6.00078 17.9742 6 17.3336 6H6.66689C6.02628 6 5.61251 6.00078 5.29755 6.02393ZM19.7778 10H4.22222V17.8002C4.22222 18.3768 4.22309 18.7489 4.24881 19.0322C4.27346 19.3037 4.31531 19.4044 4.34333 19.4539C4.45017 19.6426 4.62021 19.7956 4.82865 19.8912C4.88334 19.9163 4.99505 19.9539 5.29651 19.9761C5.61089 19.9992 6.02385 20 6.66324 20H17.3368C17.9762 20 18.3889 19.9992 18.703 19.9761C19.0041 19.9539 19.1156 19.9164 19.1705 19.8912C19.3801 19.7951 19.5507 19.6415 19.6569 19.4539C19.6848 19.4046 19.7266 19.3041 19.7512 19.0332C19.7769 18.7505 19.7778 18.379 19.7778 17.8036V10ZM6.44445 13.25C6.44445 12.5596 7.06627 12 7.83333 12H11.7222C12.4893 12 13.1111 12.5596 13.1111 13.25V16.75C13.1111 17.4404 12.4893 18 11.7222 18H7.83333C7.06627 18 6.44445 17.4404 6.44445 16.75V13.25ZM8.66667 14V16H10.8889V14H8.66667Z" fill="#1D1E20"/>
</svg>
