<svg width="24" height="24" viewBox="0 0 24 24" fill="none" xmlns="http://www.w3.org/2000/svg">
<path fill-rule="evenodd" clip-rule="evenodd" d="M8.31579 2.95238C8.31579 2.4264 8.78707 2 9.36842 2H13.5789C14.1603 2 14.6316 2.4264 14.6316 2.95238C14.6316 3.47837 14.1603 3.90476 13.5789 3.90476H9.36842C8.78707 3.90476 8.31579 3.47837 8.31579 2.95238ZM18.0978 4.18371C18.5089 3.81178 19.1754 3.81178 19.5864 4.18371L21.6917 6.08847C22.1028 6.4604 22.1028 7.06341 21.6917 7.43534C21.2806 7.80727 20.6141 7.80727 20.203 7.43534L18.0978 5.53058C17.6867 5.15865 17.6867 4.55564 18.0978 4.18371ZM11.4737 6.7619C7.40422 6.7619 4.10526 9.74667 4.10526 13.4286C4.10526 17.1105 7.40422 20.0952 11.4737 20.0952C15.5432 20.0952 18.8421 17.1105 18.8421 13.4286C18.8421 9.74667 15.5432 6.7619 11.4737 6.7619ZM2 13.4286C2 8.6947 6.24151 4.85714 11.4737 4.85714C16.7059 4.85714 20.9474 8.6947 20.9474 13.4286C20.9474 18.1624 16.7059 22 11.4737 22C6.24151 22 2 18.1624 2 13.4286ZM8.6241 12.1972C8.21302 11.8253 8.21302 11.2223 8.6241 10.8504C9.03518 10.4784 9.70167 10.4784 10.1127 10.8504L11.4737 12.0817L12.8346 10.8504C13.2457 10.4784 13.9122 10.4784 14.3232 10.8504C14.7343 11.2223 14.7343 11.8253 14.3232 12.1972L12.9623 13.4286L14.3232 14.6599C14.7343 15.0318 14.7343 15.6348 14.3232 16.0067C13.9122 16.3787 13.2457 16.3787 12.8346 16.0067L11.4737 14.7754L10.1127 16.0067C9.70167 16.3787 9.03518 16.3787 8.6241 16.0067C8.21302 15.6348 8.21302 15.0318 8.6241 14.6599L9.98502 13.4286L8.6241 12.1972Z" fill="#1D1E20"/>
</svg>
