<svg width="24" height="24" viewBox="0 0 24 24" fill="none" xmlns="http://www.w3.org/2000/svg">
<path fill-rule="evenodd" clip-rule="evenodd" d="M16.4121 4.59866C17.5909 4.7131 18.8175 4.50173 20.2045 3.52564C20.5392 3.2901 20.9938 3.24697 21.3758 3.41453C21.7577 3.5821 22 3.93101 22 4.31341V15.6868C22 15.9945 21.8426 16.2851 21.5733 16.4746C19.728 17.7732 17.9242 18.1305 16.1738 17.9606C14.5338 17.8014 12.9832 17.1778 11.6215 16.63C11.5965 16.62 11.5716 16.6099 11.5467 16.5999C10.0981 16.0174 8.84712 15.5239 7.58794 15.4017C6.53141 15.2992 5.43657 15.4583 4.22222 16.1952V20.9999C4.22222 21.5522 3.72476 21.9999 3.11111 21.9999C2.49746 21.9999 2 21.5522 2 20.9999V4.3132C2 4.00552 2.15738 3.71496 2.4267 3.52544C4.272 2.22684 6.07578 1.86956 7.82623 2.03949C9.46626 2.19871 11.0168 2.82245 12.3786 3.37025C12.4035 3.38029 12.4284 3.39031 12.4533 3.40031C13.9019 3.98288 15.1529 4.47642 16.4121 4.59866ZM4.22222 13.9132C5.44531 13.4234 6.64784 13.2989 7.8262 13.4132C9.46623 13.5724 11.0168 14.1961 12.3785 14.7439C12.4035 14.7539 12.4284 14.7639 12.4533 14.7739C13.9019 15.3564 15.1529 15.8499 16.4121 15.9721C17.4686 16.0747 18.5634 15.9155 19.7778 15.1787V6.08723C18.5547 6.577 17.3521 6.70152 16.1738 6.58712C14.5337 6.42791 12.9832 5.80417 11.6215 5.25637C11.5965 5.24632 11.5716 5.2363 11.5467 5.22631C10.0981 4.64374 8.84709 4.1502 7.58791 4.02796C6.53139 3.92539 5.43656 4.08453 4.22222 4.82134V13.9132Z" fill="#1D1E20"/>
</svg>
