<svg width="24" height="24" viewBox="0 0 24 24" fill="none" xmlns="http://www.w3.org/2000/svg">
<path fill-rule="evenodd" clip-rule="evenodd" d="M12.3155 4.22546C12.1098 4.16578 11.8902 4.16578 11.6846 4.22546C11.6278 4.24195 11.5282 4.28264 11.3161 4.43827C11.0928 4.60208 10.8192 4.83605 10.3922 5.20268L5.05711 9.78366C4.56817 10.2035 4.47642 10.294 4.41467 10.3832C4.34254 10.4875 4.28996 10.6012 4.25845 10.7196C4.23079 10.8234 4.22236 10.9494 4.22236 11.5891V17.6383C4.22236 18.1612 4.22296 18.4988 4.24092 18.7571C4.2582 19.0056 4.28777 19.1003 4.30693 19.1457C4.42001 19.4136 4.63646 19.6259 4.90798 19.7363C4.95422 19.7551 5.0507 19.7841 5.30403 19.8011C5.56734 19.8187 5.91138 19.8193 6.44429 19.8193C6.97719 19.8193 7.3214 19.8187 7.58488 19.8011C7.83846 19.7841 7.93502 19.7551 7.98118 19.7363C8.25268 19.6259 8.46903 19.4137 8.58211 19.1458C8.60129 19.1003 8.63088 19.0056 8.64818 18.757C8.66617 18.4987 8.6668 18.1611 8.6668 17.6382V16.5478C8.6668 14.7413 10.1592 13.2768 12.0001 13.2768C13.8411 13.2768 15.3335 14.7413 15.3335 16.5478V17.6382C15.3335 18.1611 15.3341 18.4987 15.352 18.7571C15.3693 19.0057 15.3989 19.1004 15.418 19.1458C15.5311 19.4136 15.7475 19.6259 16.0191 19.7363C16.0653 19.7551 16.1618 19.7841 16.4151 19.8011C16.6784 19.8187 17.0225 19.8193 17.5554 19.8193C18.0883 19.8193 18.4325 19.8187 18.696 19.8011C18.9496 19.7841 19.0461 19.7551 19.0923 19.7363C19.3637 19.626 19.5801 19.4137 19.6932 19.1457C19.7124 19.1002 19.742 19.0055 19.7593 18.757C19.7773 18.4987 19.7779 18.1612 19.7779 17.6383V11.5891C19.7779 10.951 19.7691 10.8238 19.7413 10.7196C19.7092 10.5991 19.6568 10.4857 19.5859 10.3832C19.5242 10.294 19.4325 10.2036 18.9434 9.78366L13.61 5.20419C13.1825 4.83708 12.9084 4.60274 12.6848 4.4387C12.4723 4.28283 12.3725 4.24201 12.3155 4.22546ZM11.0544 2.13429C11.6714 1.95524 12.3287 1.95524 12.9457 2.13429C13.3554 2.25321 13.6964 2.4581 14.0154 2.69216C14.3161 2.91273 14.655 3.20377 15.045 3.53872L20.4067 8.14252C20.4305 8.16294 20.4541 8.18317 20.4775 8.20325C20.8526 8.52473 21.1807 8.80601 21.4245 9.15844C21.6379 9.46688 21.7955 9.80816 21.8913 10.1682C22.001 10.5801 22.0006 11.0077 22.0002 11.4956C22.0002 11.5265 22.0001 11.5577 22.0001 11.5891V17.6716C22.0001 18.1506 22.0002 18.5638 21.9763 18.9057C21.9513 19.2653 21.8962 19.6249 21.7463 19.9802C21.4083 20.7809 20.7603 21.4187 19.9427 21.751C19.5805 21.8982 19.2137 21.9522 18.8472 21.9767C18.499 22 18.0783 22 17.5908 22H17.5199C17.0325 22 16.6119 22 16.2639 21.9767C15.8974 21.9522 15.5308 21.8982 15.1687 21.751C14.3513 21.4187 13.703 20.7812 13.365 19.9803C13.215 19.6249 13.16 19.2652 13.135 18.9056C13.1112 18.564 13.1112 18.1513 13.1112 17.6731V16.5478C13.1112 15.9456 12.6138 15.4575 12.0001 15.4575C11.3865 15.4575 10.889 15.9456 10.889 16.5478L10.889 17.6714C10.889 18.1505 10.889 18.5637 10.8652 18.9057C10.8402 19.2653 10.7851 19.625 10.6352 19.9803C10.2972 20.7811 9.6491 21.4187 8.83159 21.751C8.46936 21.8982 8.10259 21.9522 7.73608 21.9767C7.38787 22 6.96718 22 6.47972 22H6.40875C5.92136 22 5.50082 22 5.15275 21.9767C4.78628 21.9522 4.41971 21.8982 4.05757 21.751C3.24007 21.4187 2.59188 20.781 2.25387 19.9802C2.10388 19.6249 2.04887 19.2652 2.02386 18.9056C2.00011 18.5641 2.00012 18.1514 2.00013 17.6732L2.00013 11.5891C2.00013 11.5556 2.0001 11.5225 2.00007 11.4896C1.99957 11.0055 1.99913 10.5787 2.10842 10.1682C2.20486 9.80608 2.36393 9.46509 2.57605 9.15845C2.81994 8.80588 3.14809 8.52459 3.52346 8.20283C3.54671 8.18289 3.57015 8.16279 3.59377 8.14252L8.95849 3.5361C9.34734 3.20219 9.6854 2.9119 9.98534 2.69181C10.304 2.45797 10.6448 2.25316 11.0544 2.13429Z" fill="#1D1E20"/>
</svg>
