<svg width="24" height="24" viewBox="0 0 24 24" fill="none" xmlns="http://www.w3.org/2000/svg">
<path fill-rule="evenodd" clip-rule="evenodd" d="M12.3155 4.22551C12.1098 4.16582 11.8902 4.16582 11.6846 4.22551C11.6278 4.242 11.5282 4.28269 11.3161 4.43832C11.0928 4.60214 10.8192 4.83611 10.3922 5.20275L5.05711 9.78383C4.56724 10.2045 4.47571 10.2944 4.41412 10.3834C4.34283 10.4865 4.29033 10.6 4.25845 10.7197C4.23079 10.8236 4.22236 10.9495 4.22236 11.5893V17.4205C4.22236 18.0492 4.22322 18.4552 4.24894 18.7643C4.27362 19.0607 4.3155 19.1706 4.34346 19.2244C4.44995 19.4295 4.61965 19.5961 4.82879 19.7006C4.88347 19.728 4.99518 19.769 5.29665 19.7932C5.61102 19.8184 6.02398 19.8193 6.66337 19.8193H17.3374C17.9769 19.8193 18.3895 19.8184 18.7037 19.7932C19.0047 19.769 19.1163 19.7281 19.1711 19.7006C19.3809 19.5958 19.5509 19.4289 19.657 19.2244C19.6849 19.1707 19.7267 19.0612 19.7514 18.7654C19.777 18.457 19.7779 18.0518 19.7779 17.4243V11.5893C19.7779 10.95 19.7695 10.8235 19.7419 10.7197C19.7102 10.6007 19.6576 10.4871 19.5859 10.3834C19.5242 10.2942 19.4325 10.2038 18.9434 9.78383L13.61 5.20426C13.1825 4.83714 12.9084 4.60279 12.6848 4.43875C12.4723 4.28288 12.3725 4.24206 12.3155 4.22551ZM11.0544 2.13429C11.6714 1.95524 12.3287 1.95524 12.9457 2.13429C13.3554 2.25321 13.6964 2.45811 14.0154 2.69218C14.3161 2.91275 14.655 3.20379 15.045 3.53875L20.4067 8.14265C20.4305 8.16307 20.4541 8.1833 20.4775 8.20338C20.8526 8.52487 21.1807 8.80615 21.4245 9.1586C21.637 9.46584 21.7956 9.80693 21.8919 10.1684C22.0011 10.5787 22.0007 11.0062 22.0002 11.4898C22.0002 11.5227 22.0001 11.5559 22.0001 11.5893V17.4663C22.0002 18.04 22.0002 18.5351 21.9662 18.9431C21.9303 19.3736 21.8511 19.8021 21.6371 20.2145C21.3171 20.8307 20.8065 21.3304 20.18 21.6437C19.7599 21.8538 19.3235 21.9315 18.8848 21.9667C18.4692 22 17.9648 22 17.3802 22H6.62057C6.03603 22 5.53141 22 5.11565 21.9667C4.67686 21.9315 4.24013 21.8538 3.81992 21.6437C3.19278 21.3301 2.68306 20.83 2.36345 20.2145C2.1492 19.8018 2.06998 19.3729 2.0341 18.9418C2.0001 18.5333 2.00011 18.0373 2.00013 17.4625L2.00013 11.5893C2.00013 11.5558 2.0001 11.5227 2.00007 11.4898C1.99957 11.0057 1.99913 10.5789 2.10842 10.1684C2.20449 9.80763 2.36256 9.46645 2.57551 9.1586C2.81881 8.80687 3.14686 8.52572 3.52016 8.20578C3.54451 8.18491 3.56905 8.16388 3.59377 8.14265L8.9585 3.53613C9.34734 3.20221 9.6854 2.91191 9.98534 2.69183C10.304 2.45798 10.6448 2.25317 11.0544 2.13429ZM12.0001 8.91553C12.6138 8.91553 13.1112 9.40371 13.1112 10.0059V12.1867H15.3335C15.9471 12.1867 16.4446 12.6748 16.4446 13.277C16.4446 13.8792 15.9471 14.3674 15.3335 14.3674H13.1112V16.5481C13.1112 17.1503 12.6138 17.6385 12.0001 17.6385C11.3865 17.6385 10.889 17.1503 10.889 16.5481V14.3674H8.6668C8.05315 14.3674 7.55569 13.8792 7.55569 13.277C7.55569 12.6748 8.05315 12.1867 8.6668 12.1867H10.889V10.0059C10.889 9.40371 11.3865 8.91553 12.0001 8.91553Z" fill="#1D1E20"/>
</svg>
