<svg width="24" height="24" viewBox="0 0 24 24" fill="none" xmlns="http://www.w3.org/2000/svg">
<path fill-rule="evenodd" clip-rule="evenodd" d="M11.7071 6.35147C12.0976 6.8201 12.0976 7.5799 11.7071 8.04853L8.41421 12L11.7071 15.9515C12.0976 16.4201 12.0976 17.1799 11.7071 17.6485C11.3166 18.1172 10.6834 18.1172 10.2929 17.6485L6.29289 12.8485C5.90237 12.3799 5.90237 11.6201 6.29289 11.1515L10.2929 6.35147C10.6834 5.88284 11.3166 5.88284 11.7071 6.35147ZM17.7071 6.35147C18.0976 6.8201 18.0976 7.5799 17.7071 8.04853L14.4142 12L17.7071 15.9515C18.0976 16.4201 18.0976 17.1799 17.7071 17.6485C17.3166 18.1172 16.6834 18.1172 16.2929 17.6485L12.2929 12.8485C11.9024 12.3799 11.9024 11.6201 12.2929 11.1515L16.2929 6.35147C16.6834 5.88284 17.3166 5.88284 17.7071 6.35147Z" fill="#1D1E20"/>
</svg>
