<svg width="24" height="24" viewBox="0 0 24 24" fill="none" xmlns="http://www.w3.org/2000/svg">
<path fill-rule="evenodd" clip-rule="evenodd" d="M3.52774 3.27912C3.92587 2.89636 4.55892 2.90881 4.94168 3.30694L19.4446 18.3919C19.8273 18.79 19.8149 19.4231 19.4168 19.8058C19.0186 20.1886 18.3856 20.1761 18.0028 19.778L13.1818 14.7635C13.1275 14.7582 13.0729 14.7484 13.0185 14.7339C12.3069 14.5435 11.5591 14.5566 10.8524 14.7714C10.1459 14.9861 9.50326 15.3964 8.99431 15.9641C8.62564 16.3753 7.99342 16.4098 7.5822 16.0411C7.17098 15.6724 7.13649 15.0402 7.50516 14.629C8.25336 13.7944 9.20794 13.1808 10.2708 12.8578C10.563 12.769 10.8601 12.7031 11.1596 12.6602L9.40781 10.8381C8.40081 11.2443 7.48948 11.8839 6.745 12.7143C6.37633 13.1255 5.74411 13.16 5.33289 12.7913C4.92167 12.4227 4.88718 11.7905 5.25585 11.3792C6.02255 10.524 6.93275 9.82375 7.93972 9.31104L6.343 7.65023C5.38162 8.23014 4.50572 8.95567 3.74459 9.80465C3.37591 10.2159 2.74369 10.2504 2.33247 9.88168C1.92125 9.51301 1.88676 8.88079 2.25543 8.46957C3.04608 7.58768 3.94436 6.81723 4.92718 6.1776L3.49993 4.69306C3.11716 4.29493 3.12961 3.66189 3.52774 3.27912ZM11.2085 4.09109C13.1701 3.96987 15.1321 4.30102 16.9541 5.05901C18.776 5.81696 20.4112 6.98256 21.7446 8.4698C22.1133 8.88101 22.0788 9.51324 21.6675 9.88191C21.2563 10.2506 20.6241 10.2161 20.2554 9.80487C19.1179 8.53611 17.7278 7.54707 16.1859 6.90558C14.644 6.26412 12.9868 5.98501 11.3319 6.08728C10.7806 6.12135 10.3061 5.7021 10.2721 5.15087C10.238 4.59963 10.6573 4.12516 11.2085 4.09109ZM14.1235 9.55964C14.3356 9.04972 14.9209 8.80833 15.4309 9.02046C16.6921 9.54518 17.8231 10.3517 18.7447 11.3796C19.1133 11.7908 19.0788 12.423 18.6676 12.7917C18.2564 13.1604 17.6242 13.1259 17.2555 12.7146C16.5298 11.9052 15.6439 11.2753 14.6626 10.867C14.1527 10.6549 13.9113 10.0696 14.1235 9.55964ZM9.97475 18.9333C9.97475 17.8294 10.8449 16.8667 12.0003 16.8667C13.1556 16.8667 14.0258 17.8294 14.0258 18.9333C14.0258 20.0373 13.1556 21 12.0003 21C10.8449 21 9.97475 20.0373 9.97475 18.9333ZM11.996 18.8722C11.9861 18.8824 11.9747 18.902 11.9747 18.9333C11.9747 18.9647 11.9861 18.9843 11.996 18.9945C11.9976 18.9962 12.0003 18.9985 12.0003 18.9985C12.0003 18.9985 12.0029 18.9962 12.0045 18.9945C12.0144 18.9843 12.0258 18.9647 12.0258 18.9333C12.0258 18.902 12.0144 18.8824 12.0045 18.8722C12.0029 18.8705 12.0003 18.8682 12.0003 18.8682C12.0003 18.8682 11.9976 18.8705 11.996 18.8722Z" fill="#1D1E20"/>
</svg>
