<svg width="24" height="24" viewBox="0 0 24 24" fill="none" xmlns="http://www.w3.org/2000/svg">
<path fill-rule="evenodd" clip-rule="evenodd" d="M8.42701 2.09574C8.92641 2.33158 9.14008 2.9276 8.90425 3.427L7.90425 5.54462C7.66842 6.04402 7.07239 6.25769 6.57299 6.02186C6.07359 5.78603 5.85992 5.19 6.09575 4.6906L7.09575 2.57298C7.33158 2.07358 7.92761 1.85991 8.42701 2.09574ZM11.427 2.09574C11.9264 2.33158 12.1401 2.9276 11.9042 3.427L10.9042 5.54462C10.6684 6.04402 10.0724 6.25769 9.57299 6.02186C9.07359 5.78603 8.85992 5.19 9.09575 4.6906L10.0958 2.57298C10.3316 2.07358 10.9276 1.85991 11.427 2.09574ZM14.427 2.09574C14.9264 2.33158 15.1401 2.9276 14.9042 3.427L13.9042 5.54462C13.6684 6.04402 13.0724 6.25769 12.573 6.02186C12.0736 5.78603 11.8599 5.19 12.0958 4.6906L13.0958 2.57298C13.3316 2.07358 13.9276 1.85991 14.427 2.09574ZM4 9.29404V13.5878C4 17.1642 6.71054 19.9702 9.94755 19.9998H10.0525C13.2895 19.9702 16 17.1642 16 13.5878V9.29404H4ZM17.7575 15.6469C17.3457 17.3627 16.4312 18.8791 15.1803 19.9998H17C17.5523 19.9998 18 20.4475 18 20.9998C18 21.552 17.5523 21.9998 17 21.9998H10.0567L10 22L9.94343 21.9998H3C2.44772 21.9998 2 21.552 2 20.9998C2 20.4475 2.44772 19.9998 3 19.9998H4.81967C3.08727 18.4477 2 16.1365 2 13.5878V9.27116C2 8.23371 2.80769 7.29404 3.92285 7.29404H16.0767C16.843 7.29404 17.4648 7.73799 17.7785 8.35285H18.5C20.4861 8.35285 22 10.0403 22 11.9999C22 13.9595 20.4861 15.6469 18.5 15.6469H17.7575ZM18 10.3528V13.6469H18.5C19.2754 13.6469 20 12.9641 20 11.9999C20 11.0356 19.2754 10.3528 18.5 10.3528H18Z" fill="#1D1E20"/>
</svg>
