<svg width="24" height="24" viewBox="0 0 24 24" fill="none" xmlns="http://www.w3.org/2000/svg">
<path fill-rule="evenodd" clip-rule="evenodd" d="M6.24552 16.4823L9.85221 12.875C10.2037 12.5235 10.7735 12.5234 11.125 12.8749C11.4765 13.2263 11.4766 13.7962 11.1251 14.1477L7.51823 17.7552C9.06112 18.5044 10.4846 18.7897 11.7493 18.7066C13.2793 18.6061 14.6481 17.9628 15.7917 16.8192C18.0042 14.6067 19.4078 10.4649 19.1762 4.8246C13.536 4.59298 9.39432 5.9966 7.18184 8.20913C6.03828 9.35271 5.39498 10.7215 5.29443 12.2515C5.21132 13.5162 5.49651 14.9396 6.24552 16.4823ZM4.90863 17.8192C3.84832 15.8544 3.38009 13.9321 3.49829 12.1335C3.62946 10.1376 4.47892 8.36647 5.90902 6.93634C8.74114 4.10416 13.7843 2.65102 20.0912 3.07148C20.5411 3.10148 20.8993 3.45975 20.9293 3.90964C21.3498 10.2165 19.8967 15.2598 17.0645 18.092C15.6344 19.5221 13.8633 20.3716 11.8673 20.5027C10.0686 20.6209 8.14621 20.1525 6.18136 19.092L4.5363 20.7365C4.18476 21.0879 3.6149 21.0878 3.26349 20.7363C2.91208 20.3847 2.91218 19.8149 3.26372 19.4635L4.90863 17.8192Z" fill="#1D1E20"/>
</svg>
