<svg width="24" height="24" viewBox="0 0 24 24" fill="none" xmlns="http://www.w3.org/2000/svg">
<path fill-rule="evenodd" clip-rule="evenodd" d="M12.4387 5.95122C8.88126 5.95122 6.04339 8.6838 6.04339 12C6.04339 13.6998 6.78438 15.2406 7.98869 16.3442C9.5845 15.9413 11.4548 15.204 13.3592 14.1596C15.5883 12.9372 17.4005 11.5485 18.575 10.2898C17.7987 7.79574 15.3578 5.95122 12.4387 5.95122ZM18.7744 12.8275C17.554 13.8826 16.0407 14.9274 14.3392 15.8605C12.9594 16.6172 11.5778 17.2336 10.271 17.6927C10.9471 17.9231 11.6767 18.0488 12.4387 18.0488C15.6953 18.0488 18.3489 15.7588 18.7744 12.8275ZM7.47887 18.4553C8.87014 19.4273 10.5865 20 12.4387 20C17.0499 20 20.834 16.4427 20.834 12C20.834 11.5934 20.8021 11.1934 20.7404 10.8023C21.2207 10.1858 21.5951 9.55834 21.8066 8.94427C22.06 8.20857 22.1134 7.37627 21.6667 6.64126C21.2174 5.90208 20.4306 5.53902 19.6369 5.3863C18.905 5.24548 18.0551 5.25781 17.1535 5.3799C15.8072 4.50791 14.1828 4 12.4387 4C7.82749 4 4.04339 7.55727 4.04339 12C4.04339 12.0762 4.04451 12.1522 4.04673 12.2279C3.30129 13.0103 2.71138 13.8077 2.36118 14.576C1.97584 15.4215 1.80314 16.4223 2.33398 17.2956C2.84408 18.1348 3.78386 18.4889 4.70076 18.6037C5.51581 18.7057 6.46555 18.6427 7.47887 18.4553ZM5.64437 16.6999C5.18902 16.1031 4.81763 15.4434 4.54759 14.7366C4.39724 14.9619 4.27771 15.1734 4.18867 15.3688C3.92061 15.957 4.00242 16.2151 4.05425 16.3004C4.10983 16.3918 4.31114 16.5877 4.9553 16.6683C5.1596 16.6939 5.38984 16.7049 5.64437 16.6999ZM19.2313 7.29713C19.2375 7.29828 19.2437 7.29945 19.2499 7.30064C19.7403 7.395 19.8976 7.55629 19.9464 7.63652C19.9908 7.70959 20.0569 7.89876 19.9108 8.32274C19.909 8.32803 19.9071 8.33333 19.9053 8.33866C19.7081 7.97409 19.4825 7.62605 19.2313 7.29713Z" fill="#1D1E20"/>
</svg>
