<svg width="24" height="24" viewBox="0 0 24 24" fill="none" xmlns="http://www.w3.org/2000/svg">
<path fill-rule="evenodd" clip-rule="evenodd" d="M12 2C12.5523 2 13 2.44772 13 3V4.8C13 5.35228 12.5523 5.8 12 5.8C11.4477 5.8 11 5.35228 11 4.8V3C11 2.44772 11.4477 2 12 2ZM4.99289 4.99289C5.38342 4.60237 6.01658 4.60237 6.40711 4.99289L7.6799 6.26569C8.07042 6.65621 8.07042 7.28937 7.6799 7.6799C7.28937 8.07042 6.65621 8.07042 6.26569 7.6799L4.99289 6.40711C4.60237 6.01658 4.60237 5.38342 4.99289 4.99289ZM19.1356 4.99289C19.5261 5.38342 19.5261 6.01658 19.1356 6.40711L17.8628 7.6799C17.4722 8.07042 16.8391 8.07042 16.4486 7.6799C16.058 7.28937 16.058 6.65621 16.4486 6.26569L17.7213 4.99289C18.1119 4.60237 18.745 4.60237 19.1356 4.99289ZM12 8.5C10.067 8.5 8.5 10.067 8.5 12C8.5 13.933 10.067 15.5 12 15.5C13.933 15.5 15.5 13.933 15.5 12C15.5 10.067 13.933 8.5 12 8.5ZM6.5 12C6.5 8.96243 8.96243 6.5 12 6.5C15.0376 6.5 17.5 8.96243 17.5 12C17.5 15.0376 15.0376 17.5 12 17.5C8.96243 17.5 6.5 15.0376 6.5 12ZM2 12C2 11.4477 2.44772 11 3 11H4.8C5.35228 11 5.8 11.4477 5.8 12C5.8 12.5523 5.35228 13 4.8 13H3C2.44772 13 2 12.5523 2 12ZM18.2 12C18.2 11.4477 18.6477 11 19.2 11H21C21.5523 11 22 11.4477 22 12C22 12.5523 21.5523 13 21 13H19.2C18.6477 13 18.2 12.5523 18.2 12ZM16.4481 16.4481C16.8386 16.0576 17.4718 16.0576 17.8623 16.4481L19.1351 17.7209C19.5256 18.1114 19.5256 18.7446 19.1351 19.1351C18.7446 19.5256 18.1114 19.5256 17.7209 19.1351L16.4481 17.8623C16.0576 17.4718 16.0576 16.8386 16.4481 16.4481ZM7.68034 16.4481C8.07086 16.8386 8.07086 17.4718 7.68034 17.8623L6.40755 19.1351C6.01702 19.5256 5.38386 19.5256 4.99333 19.1351C4.60281 18.7446 4.60281 18.1114 4.99333 17.7209L6.26612 16.4481C6.65665 16.0576 7.28981 16.0576 7.68034 16.4481ZM12 18.2C12.5523 18.2 13 18.6477 13 19.2V21C13 21.5523 12.5523 22 12 22C11.4477 22 11 21.5523 11 21V19.2C11 18.6477 11.4477 18.2 12 18.2Z" fill="#1D1E20"/>
</svg>
