<svg width="24" height="24" viewBox="0 0 24 24" fill="none" xmlns="http://www.w3.org/2000/svg">
<path fill-rule="evenodd" clip-rule="evenodd" d="M11.1515 6.29289C11.6201 5.90237 12.3799 5.90237 12.8485 6.29289L17.6485 10.2929C18.1172 10.6834 18.1172 11.3166 17.6485 11.7071C17.1799 12.0976 16.4201 12.0976 15.9515 11.7071L12 8.41421L8.04853 11.7071C7.5799 12.0976 6.8201 12.0976 6.35147 11.7071C5.88284 11.3166 5.88284 10.6834 6.35147 10.2929L11.1515 6.29289ZM12 12C12.3183 12 12.6235 12.1054 12.8485 12.2929L17.6485 16.2929C18.1172 16.6834 18.1172 17.3166 17.6485 17.7071C17.1799 18.0976 16.4201 18.0976 15.9515 17.7071L12 14.4142L8.04853 17.7071C7.5799 18.0976 6.8201 18.0976 6.35147 17.7071C5.88284 17.3166 5.88284 16.6834 6.35147 16.2929L11.1515 12.2929C11.3765 12.1054 11.6817 12 12 12Z" fill="#1D1E20"/>
</svg>
