<svg width="24" height="24" viewBox="0 0 24 24" fill="none" xmlns="http://www.w3.org/2000/svg">
<path fill-rule="evenodd" clip-rule="evenodd" d="M6.29289 6.35147C6.68342 5.88284 7.31658 5.88284 7.70711 6.35147L11.7071 11.1515C12.0976 11.6201 12.0976 12.3799 11.7071 12.8485L7.70711 17.6485C7.31658 18.1172 6.68342 18.1172 6.29289 17.6485C5.90237 17.1799 5.90237 16.4201 6.29289 15.9515L9.58579 12L6.29289 8.04853C5.90237 7.5799 5.90237 6.8201 6.29289 6.35147ZM12.2929 6.35147C12.6834 5.88284 13.3166 5.88284 13.7071 6.35147L17.7071 11.1515C18.0976 11.6201 18.0976 12.3799 17.7071 12.8485L13.7071 17.6485C13.3166 18.1172 12.6834 18.1172 12.2929 17.6485C11.9024 17.1799 11.9024 16.4201 12.2929 15.9515L15.5858 12L12.2929 8.04853C11.9024 7.5799 11.9024 6.8201 12.2929 6.35147Z" fill="#1D1E20"/>
</svg>
