<svg width="24" height="26" viewBox="0 0 24 26" fill="none" xmlns="http://www.w3.org/2000/svg">
<path fill-rule="evenodd" clip-rule="evenodd" d="M12.4142 5.2222L11.6446 4.36709C11.6248 4.3451 11.6052 4.32326 11.5857 4.3016C11.2985 3.98184 11.0448 3.69941 10.7393 3.49141C10.4718 3.30925 10.1796 3.17401 9.87249 3.09209C9.52404 2.99914 9.16473 2.99951 8.75786 2.99993C8.7303 2.99996 8.70253 2.99999 8.67452 2.99999H5C3.34315 2.99999 2 4.49237 2 6.33331L2 18.3761C1.99998 18.9618 1.99997 19.467 2.03057 19.8831C2.06288 20.3223 2.13422 20.7591 2.32698 21.1794C2.61416 21.8057 3.07245 22.3167 3.63781 22.6368C4.016 22.8509 4.40906 22.9301 4.80397 22.9659C5.17815 22.9999 5.6323 22.9999 6.15839 22.9999H17.8416C18.3677 22.9999 18.8217 22.9999 19.1957 22.9659C19.5905 22.9301 19.9833 22.8508 20.3614 22.6368C20.9255 22.3175 21.3854 21.8073 21.6732 21.1796C21.866 20.7592 21.9373 20.3223 21.9696 19.883C22.0003 19.4668 22.0002 18.9615 22.0002 18.3758L22.0002 9.84574C22.0002 9.26004 22.0002 8.75476 21.9696 8.33857C21.9373 7.8993 21.866 7.46239 21.6732 7.04198C21.3852 6.4138 20.9252 5.90459 20.3616 5.58551C19.9833 5.37133 19.5902 5.29207 19.1949 5.25617C18.8204 5.22216 18.3657 5.22218 17.8386 5.2222L12.4142 5.2222ZM4 7.44441V18.3332C4 18.9739 4.00078 19.3874 4.02393 19.7021C4.04612 20.0037 4.08377 20.1156 4.109 20.1706C4.20531 20.3806 4.3585 20.5508 4.54579 20.6568C4.59501 20.6847 4.69554 20.7265 4.96686 20.7511C5.2498 20.7768 5.62146 20.7777 6.19691 20.7777H17.8031C18.3786 20.7777 18.75 20.7768 19.0327 20.7511C19.3036 20.7265 19.4041 20.6847 19.4534 20.6568C19.642 20.55 19.7956 20.3794 19.8912 20.1708C19.9164 20.1158 19.9541 20.0039 19.9763 19.7021C19.9994 19.3873 20.0002 18.9736 20.0002 18.333L20.0002 9.88859C20.0002 9.24798 19.9994 8.83435 19.9763 8.51953C19.9541 8.21768 19.9164 8.10577 19.8912 8.05084C19.7958 7.84274 19.6426 7.67254 19.4536 7.56551C19.4041 7.53749 19.3034 7.49565 19.0319 7.47099C18.7487 7.44527 18.3766 7.44441 17.8 7.44441H4ZM8 13.5555C8 11.4077 9.56701 9.66662 11.5 9.66662C13.433 9.66662 15 11.4077 15 13.5555C15 14.2255 14.8475 14.8559 14.579 15.4063L15.7065 16.6591C16.097 17.093 16.097 17.7965 15.7065 18.2304C15.316 18.6643 14.6828 18.6643 14.2923 18.2304L13.1645 16.9773C12.6694 17.2752 12.1025 17.4444 11.5 17.4444C9.56701 17.4444 8 15.7032 8 13.5555ZM11.5 11.8888C10.6716 11.8888 10 12.635 10 13.5555C10 14.476 10.6716 15.2221 11.5 15.2221C12.3284 15.2221 13 14.476 13 13.5555C13 12.635 12.3284 11.8888 11.5 11.8888Z" fill="#1D1E20"/>
</svg>
