<svg width="24" height="24" viewBox="0 0 24 24" fill="none" xmlns="http://www.w3.org/2000/svg">
<path fill-rule="evenodd" clip-rule="evenodd" d="M13.9933 6.00026H8.00001V8.00361C8.15831 8.01008 8.32889 8.02765 8.49545 8.07428C8.73156 8.14037 8.95042 8.24856 9.14446 8.39207C9.37026 8.55908 9.54159 8.78079 9.67737 8.95648C9.68993 8.97273 9.70218 8.98859 9.71415 9.00398L10.4891 10.0003L15.4317 10.0003C15.6843 10.0002 15.9305 10.0002 16.139 10.0172C16.3673 10.0358 16.638 10.0797 16.91 10.2182C17.291 10.4124 17.5923 10.7206 17.7816 11.0922C17.9199 11.3636 17.964 11.6333 17.9827 11.8619C17.9997 12.0701 17.9997 12.3159 17.9996 12.5683L18.0005 14.0006L19.4021 14.0003C19.6981 14.0003 19.8603 13.9995 19.9768 13.99C19.9807 13.9896 19.9845 13.9893 19.9882 13.989C19.9885 13.9848 19.9889 13.9803 19.9893 13.9755C19.9988 13.8589 19.9996 13.6967 19.9996 13.4002V6.60015C19.9996 6.30362 19.9988 6.14137 19.9893 6.02478C19.9889 6.02014 19.9885 6.01573 19.9882 6.01158C19.9845 6.01124 19.9806 6.01091 19.9766 6.01058C19.8594 6.00103 19.6964 6.00026 19.4 6.00026H14.0079C14.0031 6.0003 13.9982 6.0003 13.9933 6.00026ZM14.489 4.00026L19.4318 4.00026C19.6843 4.00023 19.9305 4.0002 20.139 4.01719C20.3673 4.03579 20.638 4.07967 20.9099 4.21825C21.2909 4.41238 21.5923 4.72059 21.7816 5.09217C21.9199 5.36359 21.964 5.63333 21.9827 5.86192C21.9997 6.07007 21.9997 6.31586 21.9996 6.56823V13.4321C21.9997 13.6845 21.9997 13.9302 21.9827 14.1384C21.964 14.367 21.9199 14.6367 21.7816 14.9081C21.5917 15.2809 21.2889 15.5888 20.9091 15.7824C20.6377 15.9207 20.3679 15.9647 20.1396 15.9833C19.9316 16.0003 19.6861 16.0003 19.4342 16.0003L18.0008 16.0006L17.9996 19.432C17.9997 19.6844 17.9997 19.9302 17.9827 20.1384C17.964 20.367 17.9199 20.6367 17.7816 20.9081C17.5911 21.2821 17.2872 21.5894 16.9085 21.7824C16.637 21.9207 16.3671 21.9647 16.1388 21.9833C15.9307 22.0003 15.6851 22.0003 15.4332 22.0003L4.56611 22.0003C4.31426 22.0003 4.06885 22.0003 3.86096 21.9833C3.63254 21.9646 3.36311 21.9206 3.09191 21.7824C2.71411 21.5899 2.40898 21.2826 2.218 20.9078C2.07976 20.6365 2.03565 20.367 2.01696 20.1383C1.99994 19.9302 1.99997 19.6845 2 19.4322L2 10.5685C1.99997 10.3161 1.99995 10.0703 2.01695 9.86209C2.03561 9.63357 2.07964 9.36368 2.21798 9.09217C2.40973 8.71585 2.71558 8.40999 3.09191 8.21824C3.36331 8.07995 3.63303 8.03589 3.86158 8.01721C4.0697 8.00021 4.31543 8.00024 4.56773 8.00027C4.57834 8.00027 4.58897 8.00027 4.59961 8.00027L6.00001 8.00026L6.00001 4.60036C6.00001 4.58973 6.00001 4.5791 6 4.56849C5.99997 4.31613 5.99995 4.0703 6.01695 3.86209C6.03561 3.63357 6.07964 3.36368 6.21798 3.09217C6.40974 2.71583 6.71561 2.40999 7.09191 2.21825C7.36326 2.07999 7.63286 2.0359 7.86149 2.01721C8.0696 2.0002 8.31534 2.00023 8.5677 2.00026C8.57833 2.00026 8.58897 2.00026 8.59961 2.00026H11.6615C11.681 2.00026 11.7011 2.0002 11.7216 2.00013C11.9439 1.99945 12.2227 1.99859 12.4931 2.07429C12.7236 2.13881 12.9458 2.24513 13.1445 2.39208C13.3703 2.55908 13.5416 2.78078 13.6774 2.95647C13.6899 2.97273 13.7022 2.9886 13.7142 3.00399L14.489 4.00026ZM15.9996 12.6008C15.9996 12.3043 15.9988 12.1414 15.9893 12.0248C15.9889 12.0201 15.9886 12.0157 15.9882 12.0116C15.9845 12.0112 15.9806 12.0109 15.9766 12.0106C15.8594 12.001 15.6964 12.0003 15.4 12.0003H4.00001V19.4003C4.00001 19.6968 4.00078 19.8589 4.0103 19.9753C4.01069 19.9801 4.01109 19.9846 4.01148 19.9889C4.01543 19.9892 4.01959 19.9896 4.02397 19.99C4.1402 19.9995 4.30198 20.0003 4.59797 20.0003L15.4014 20.0003C15.6973 20.0003 15.8595 19.9995 15.9761 19.99C15.9803 19.9896 15.9843 19.9893 15.9882 19.9889C15.9885 19.9847 15.9889 19.9802 15.9893 19.9755C15.9988 19.8589 15.9996 19.6967 15.9996 19.4002V12.6008Z" fill="#1D1E20"/>
</svg>
