<svg width="24" height="24" viewBox="0 0 24 24" fill="none" xmlns="http://www.w3.org/2000/svg">
<path fill-rule="evenodd" clip-rule="evenodd" d="M12.4142 4.10526L11.1757 2.80161C11.164 2.78928 11.152 2.77657 11.1397 2.76356C11.0058 2.62183 10.8371 2.44335 10.6308 2.31025C10.4518 2.19482 10.2568 2.10976 10.0527 2.05819C9.81735 1.99872 9.57821 1.99939 9.3883 1.99992C9.37086 1.99997 9.35383 2.00002 9.33726 2.00002H4.60001C4.58936 2.00002 4.57873 2.00002 4.56811 2.00002C4.31572 1.99998 4.06993 1.99995 3.86178 2.01786C3.63318 2.03751 3.36345 2.0839 3.09202 2.22948C2.7157 2.43131 2.40974 2.75337 2.21799 3.1495C2.07969 3.43521 2.03563 3.71913 2.01695 3.95976C1.99994 4.17887 1.99997 4.43759 2 4.70326C2 4.71444 2.00001 4.72563 2.00001 4.73683L2 16.5668C1.99998 17.1216 1.99997 17.6003 2.03057 17.9946C2.06287 18.4108 2.13419 18.8247 2.32698 19.223C2.6146 19.8172 3.07355 20.3003 3.63803 20.603C4.01641 20.8059 4.40963 20.881 4.80498 20.915C5.17954 20.9472 5.6343 20.9472 6.16144 20.9472L7 20.9472C7.55229 20.9472 8 20.4759 8 19.8946C8 19.3132 7.55229 18.842 7 18.842H6.2C5.62345 18.842 5.25118 18.8411 4.96784 18.8168C4.69618 18.7934 4.59546 18.7537 4.54601 18.7272C4.35785 18.6263 4.20487 18.4653 4.109 18.2672C4.0838 18.2152 4.04613 18.1091 4.02393 17.8232C4.00078 17.5249 4 17.1331 4 16.5262L4 6.2105H17.8C18.3766 6.2105 18.7488 6.21132 19.0322 6.23569C19.3038 6.25905 19.4046 6.29871 19.454 6.32523C19.6422 6.42615 19.7951 6.58718 19.891 6.78525C19.9162 6.83729 19.9539 6.94331 19.9761 7.22927C19.9992 7.52751 20 7.91938 20 8.52627V8.5789C20 9.16025 20.4477 9.63152 21 9.63152C21.5523 9.63152 22 9.16025 22 8.5789V8.48567C22 7.9308 22 7.45211 21.9694 7.05783C21.9371 6.64169 21.8658 6.22778 21.673 5.82949C21.3854 5.2353 20.9265 4.7522 20.362 4.44945C19.9836 4.24651 19.5904 4.17144 19.195 4.13744C18.8205 4.10523 18.3657 4.10524 17.8386 4.10526L12.4142 4.10526ZM18.5 9.36837C18.7652 9.36837 19.0196 9.47927 19.2071 9.67667L21.7071 12.3082C22.0976 12.7193 22.0976 13.3858 21.7071 13.7969L14.2071 21.6915C14.0196 21.8889 13.7652 21.9998 13.5 21.9998H11C10.4477 21.9998 10 21.5285 10 20.9472V18.3156C10 18.0365 10.1054 17.7687 10.2929 17.5713L17.7929 9.67667C17.9804 9.47927 18.2348 9.36837 18.5 9.36837ZM12 18.7517V19.8946H13.0858L16.8358 15.9472L15.75 14.8043L12 18.7517ZM17.1642 13.3157L18.25 14.4586L19.5858 13.0525L18.5 11.9096L17.1642 13.3157Z" fill="#1D1E20"/>
</svg>
