<svg width="24" height="24" viewBox="0 0 24 24" fill="none" xmlns="http://www.w3.org/2000/svg">
<path fill-rule="evenodd" clip-rule="evenodd" d="M17.2929 2.32544C17.6834 1.89152 18.3166 1.89152 18.7071 2.32544L21.7071 5.65877C21.8946 5.86714 22 6.14976 22 6.44445C22 6.73913 21.8946 7.02175 21.7071 7.23012L18.7071 10.5635C18.3166 10.9974 17.6834 10.9974 17.2929 10.5635C16.9024 10.1295 16.9024 9.42602 17.2929 8.9921L18.5858 7.55556H17C16.0984 7.55556 15.269 7.88569 14.6006 8.44356C14.159 8.8121 13.5321 8.71311 13.2004 8.22246C12.8687 7.7318 12.9578 7.03529 13.3994 6.66674C14.4023 5.82975 15.6504 5.33333 17 5.33333L18.5858 5.33333L17.2929 3.89679C16.9024 3.46287 16.9024 2.75935 17.2929 2.32544ZM2 6.44444C2 5.8308 2.44772 5.33333 3 5.33333H7C10.3137 5.33333 13 8.3181 13 12C13 14.4546 14.7909 16.4444 17 16.4444H18.5858L17.2929 15.0079C16.9024 14.574 16.9024 13.8705 17.2929 13.4365C17.6834 13.0026 18.3166 13.0026 18.7071 13.4365L21.7071 16.7699C22.0976 17.2038 22.0976 17.9073 21.7071 18.3412L18.7071 21.6746C18.3166 22.1085 17.6834 22.1085 17.2929 21.6746C16.9024 21.2406 16.9024 20.5371 17.2929 20.1032L18.5858 18.6667H17C13.6863 18.6667 11 15.6819 11 12C11 9.5454 9.20914 7.55556 7 7.55556H3C2.44772 7.55556 2 7.05809 2 6.44444ZM10.7996 15.7771C11.1313 16.2678 11.0422 16.9643 10.6006 17.3329C9.59788 18.1697 8.3498 18.6667 7 18.6667H3C2.44772 18.6667 2 18.1692 2 17.5556C2 16.9419 2.44772 16.4444 3 16.4444H7C7.90141 16.4444 8.7308 16.1141 9.39942 15.556C9.84101 15.1875 10.4679 15.2865 10.7996 15.7771Z" fill="#1D1E20"/>
</svg>
