<svg width="24" height="24" viewBox="0 0 24 24" fill="none" xmlns="http://www.w3.org/2000/svg">
<path fill-rule="evenodd" clip-rule="evenodd" d="M12 4C7.58172 4 4 7.58172 4 12C4 16.4183 7.58172 20 12 20C16.4183 20 20 16.4183 20 12C20 7.58172 16.4183 4 12 4ZM2 12C2 6.47715 6.47715 2 12 2C17.5228 2 22 6.47715 22 12C22 17.5228 17.5228 22 12 22C6.47715 22 2 17.5228 2 12ZM10.5677 8C10.5783 8 10.589 8 10.5996 8L13.4315 8C13.6839 7.99997 13.9298 7.99994 14.1381 8.01694C14.3666 8.03559 14.6366 8.07961 14.9082 8.21799C15.2855 8.41024 15.5904 8.71657 15.7816 9.09191C15.9197 9.36285 15.964 9.63209 15.9828 9.86092C16 10.0703 16 10.3174 16 10.5714V13.4277C16 13.6818 16 13.9291 15.9828 14.1386C15.964 14.3673 15.9198 14.637 15.7816 14.9082C15.5899 15.2845 15.2845 15.5899 14.9082 15.7816C14.637 15.9198 14.3673 15.964 14.1386 15.9828C13.9291 16 13.6818 16 13.4277 16H10.5714C10.3174 16 10.0703 16 9.86092 15.9828C9.63209 15.964 9.36285 15.9197 9.09191 15.7816C8.71657 15.5904 8.41024 15.2855 8.21799 14.9082C8.07961 14.6366 8.03559 14.3666 8.01694 14.1381C7.99994 13.9298 7.99997 13.6839 8 13.4315L8 10.5996C8 10.589 8 10.5783 8 10.5677C7.99997 10.3153 7.99994 10.0696 8.01695 9.86149C8.03564 9.63285 8.07973 9.36325 8.21799 9.09191C8.40973 8.71558 8.71558 8.40973 9.09191 8.21799C9.36325 8.07973 9.63285 8.03564 9.86149 8.01695C10.0696 7.99994 10.3153 7.99997 10.5677 8ZM10.0114 10.0114C10.0111 10.0155 10.0107 10.0198 10.0103 10.0244C10.0008 10.1409 10 10.3031 10 10.5996V13.3996C10 13.6961 10.0008 13.8586 10.0103 13.9753C10.0107 13.9799 10.0111 13.9843 10.0114 13.9884C10.0157 13.9888 10.0202 13.9892 10.025 13.9896C10.1412 13.9991 10.3034 14 10.5996 14H13.3996C13.6958 14 13.8582 13.9991 13.9748 13.9895C13.9796 13.9892 13.9841 13.9888 13.9884 13.9884C13.9888 13.9841 13.9892 13.9796 13.9895 13.9748C13.9991 13.8582 14 13.6958 14 13.3996V10.5996C14 10.3034 13.9991 10.1412 13.9896 10.025C13.9892 10.0202 13.9888 10.0157 13.9884 10.0114C13.9843 10.0111 13.9799 10.0107 13.9753 10.0103C13.8586 10.0008 13.6961 10 13.3996 10H10.5996C10.3031 10 10.1409 10.0008 10.0244 10.0103C10.0198 10.0107 10.0155 10.0111 10.0114 10.0114Z" fill="#1D1E20"/>
</svg>
